JosefinSlab-ThinItalic.ufo
<glyph name="exclam" format="2">
  <advance width="225"/>
  <unicode hex="0021"/>
  <outline>
    <contour>
      <point x="164" y="750" type="line"/>
      <point x="178" y="750" type="line"/>
      <point x="106" y="166" type="line"/>
      <point x="92" y="166" type="line"/>
    </contour>
    <contour>
      <point x="84" y="36" type="qcurve"/>
      <point x="77" y="36"/>
      <point x="66" y="48"/>
      <point x="67" y="56" type="qcurve"/>
      <point x="68" y="65"/>
      <point x="81" y="76"/>
      <point x="88" y="76" type="qcurve"/>
      <point x="96" y="76"/>
      <point x="107" y="65"/>
      <point x="106" y="56" type="qcurve"/>
      <point x="105" y="48"/>
      <point x="92" y="36"/>
    </contour>
  </outline>
</glyph>
<glyph name="dollar" format="2">
  <advance width="531"/>
  <unicode hex="0024"/>
  <outline>
    <contour>
      <point x="466" y="582" type="line"/>
      <point x="475" y="659" type="line"/>
      <point x="448" y="670"/>
      <point x="368" y="691"/>
      <point x="327" y="691" type="qcurve"/>
      <point x="318" y="691" type="line"/>
      <point x="282" y="398" type="line"/>
      <point x="316" y="385"/>
      <point x="383" y="355"/>
      <point x="436" y="313"/>
      <point x="469" y="253"/>
      <point x="469" y="210" type="qcurve"/>
      <point x="469" y="160"/>
      <point x="432" y="81"/>
      <point x="368" y="24"/>
      <point x="282" y="-7"/>
      <point x="232" y="-8" type="qcurve"/>
      <point x="225" y="-68" type="line"/>
      <point x="211" y="-68" type="line"/>
      <point x="218" y="-8" type="line"/>
      <point x="179" y="-7"/>
      <point x="115" y="12"/>
      <point x="67" y="35"/>
      <point x="34" y="58"/>
      <point x="27" y="63" type="qcurve"/>
      <point x="37" y="148" type="line"/>
      <point x="51" y="148" type="line"/>
      <point x="42" y="72" type="line"/>
      <point x="55" y="61"/>
      <point x="94" y="39"/>
      <point x="140" y="20"/>
      <point x="192" y="7"/>
      <point x="220" y="6" type="qcurve"/>
      <point x="267" y="387" type="line"/>
      <point x="238" y="398"/>
      <point x="183" y="423"/>
      <point x="141" y="455"/>
      <point x="116" y="499"/>
      <point x="116" y="529" type="qcurve"/>
      <point x="116" y="564"/>
      <point x="146" y="625"/>
      <point x="197" y="671"/>
      <point x="266" y="700"/>
      <point x="305" y="703" type="qcurve"/>
      <point x="313" y="764" type="line"/>
      <point x="327" y="764" type="line"/>
      <point x="319" y="704" type="line"/>
      <point x="323" y="704" type="line"/>
      <point x="341" y="704"/>
      <point x="385" y="699"/>
      <point x="430" y="689"/>
      <point x="473" y="675"/>
      <point x="490" y="667" type="qcurve"/>
      <point x="480" y="582" type="line"/>
    </contour>
    <contour>
      <point x="455" y="207" type="qcurve"/>
      <point x="455" y="247"/>
      <point x="424" y="302"/>
      <point x="375" y="342"/>
      <point x="312" y="370"/>
      <point x="280" y="382" type="qcurve"/>
      <point x="234" y="6" type="line"/>
      <point x="274" y="6"/>
      <point x="353" y="32"/>
      <point x="416" y="82"/>
      <point x="455" y="157"/>
    </contour>
    <contour>
      <point x="130" y="533" type="qcurve"/>
      <point x="130" y="506"/>
      <point x="153" y="467"/>
      <point x="191" y="437"/>
      <point x="241" y="414"/>
      <point x="269" y="403" type="qcurve"/>
      <point x="304" y="690" type="line"/>
      <point x="265" y="687"/>
      <point x="200" y="659"/>
      <point x="155" y="616"/>
      <point x="130" y="562"/>
    </contour>
  </outline>
</glyph>
<glyph name="quotesingle" format="2">
  <advance width="179"/>
  <unicode hex="0027"/>
  <outline>
    <contour>
      <point x="106" y="472" type="line"/>
      <point x="136" y="720" type="line"/>
      <point x="154" y="720" type="line"/>
      <point x="120" y="472" type="line"/>
    </contour>
  </outline>
</glyph>
<glyph name="asterisk" format="2">
  <advance width="411"/>
  <unicode hex="002A"/>
  <outline>
    <contour>
      <point x="260" y="575" type="line"/>
      <point x="364" y="511" type="line"/>
      <point x="353" y="496" type="line"/>
      <point x="250" y="562" type="line"/>
      <point x="245" y="530"/>
      <point x="237" y="466"/>
      <point x="232" y="434" type="qcurve"/>
      <point x="218" y="434" type="line"/>
      <point x="234" y="561" type="line"/>
      <point x="116" y="498" type="line"/>
      <point x="109" y="513" type="line"/>
      <point x="228" y="576" type="line"/>
      <point x="125" y="642" type="line"/>
      <point x="127" y="645"/>
      <point x="131" y="651"/>
      <point x="133" y="654" type="qcurve"/>
      <point x="159" y="637"/>
      <point x="211" y="606"/>
      <point x="237" y="589" type="qcurve"/>
      <point x="253" y="720" type="line"/>
      <point x="271" y="720" type="line"/>
      <point x="266" y="687"/>
      <point x="258" y="622"/>
      <point x="253" y="589" type="qcurve"/>
      <point x="375" y="653" type="line"/>
      <point x="381" y="641" type="line"/>
    </contour>
  </outline>
</glyph>
<glyph name="plus" format="2">
  <advance width="477"/>
  <unicode hex="002B"/>
  <outline>
    <contour>
      <point x="205" y="51" type="line"/>
      <point x="226" y="225" type="line"/>
      <point x="53" y="225" type="line"/>
      <point x="55" y="239" type="line"/>
      <point x="228" y="239" type="line"/>
      <point x="249" y="411" type="line"/>
      <point x="263" y="411" type="line"/>
      <point x="242" y="239" type="line"/>
      <point x="415" y="239" type="line"/>
      <point x="413" y="225" type="line"/>
      <point x="240" y="225" type="line"/>
      <point x="219" y="51" type="line"/>
    </contour>
  </outline>
</glyph>
<glyph name="comma" format="2">
  <advance width="226"/>
  <unicode hex="002C"/>
  <outline>
    <contour>
      <point x="124" y="86" type="line"/>
      <point x="110" y="60"/>
      <point x="93" y="29"/>
      <point x="77" y="1"/>
      <point x="60" y="-30"/>
      <point x="46" y="-56" type="qcurve"/>
      <point x="32" y="-56" type="line"/>
      <point x="101" y="86" type="line"/>
    </contour>
  </outline>
</glyph>
<glyph name="period" format="2">
  <advance width="187"/>
  <unicode hex="002E"/>
  <outline>
    <contour>
      <point x="45" y="18" type="qcurve"/>
      <point x="45" y="27"/>
      <point x="59" y="40"/>
      <point x="68" y="40" type="qcurve"/>
      <point x="76" y="40"/>
      <point x="86" y="30"/>
      <point x="86" y="22" type="qcurve"/>
      <point x="86" y="13"/>
      <point x="72" y="0"/>
      <point x="63" y="0" type="qcurve"/>
      <point x="55" y="0"/>
      <point x="45" y="10"/>
    </contour>
  </outline>
</glyph>
<glyph name="slash" format="2">
  <advance width="389"/>
  <unicode hex="002F"/>
  <outline>
    <contour>
      <point x="13" y="-19" type="line"/>
      <point x="384" y="736" type="line"/>
      <point x="398" y="736" type="line"/>
      <point x="27" y="-19" type="line"/>
    </contour>
  </outline>
</glyph>
<glyph name="zero" format="2">
  <advance width="669"/>
  <unicode hex="0030"/>
  <outline>
    <contour>
      <point x="73" y="327" type="qcurve"/>
      <point x="79" y="375"/>
      <point x="122" y="490"/>
      <point x="198" y="591"/>
      <point x="311" y="658"/>
      <point x="386" y="658" type="qcurve"/>
      <point x="460" y="658"/>
      <point x="554" y="589"/>
      <point x="604" y="488"/>
      <point x="616" y="372"/>
      <point x="610" y="324" type="qcurve"/>
      <point x="601" y="255"/>
      <point x="542" y="134"/>
      <point x="457" y="44"/>
      <point x="352" y="-7"/>
      <point x="297" y="-7" type="qcurve"/>
      <point x="242" y="-7"/>
      <point x="152" y="46"/>
      <point x="91" y="136"/>
      <point x="64" y="257"/>
    </contour>
    <contour>
      <point x="88" y="328" type="qcurve"/>
      <point x="79" y="255"/>
      <point x="107" y="137"/>
      <point x="167" y="53"/>
      <point x="253" y="7"/>
      <point x="301" y="7" type="qcurve"/>
      <point x="349" y="7"/>
      <point x="446" y="51"/>
      <point x="528" y="133"/>
      <point x="587" y="251"/>
      <point x="596" y="323" type="qcurve"/>
      <point x="605" y="396"/>
      <point x="581" y="515"/>
      <point x="524" y="598"/>
      <point x="437" y="644"/>
      <point x="383" y="644" type="qcurve"/>
      <point x="329" y="644"/>
      <point x="231" y="601"/>
      <point x="152" y="518"/>
      <point x="97" y="401"/>
    </contour>
  </outline>
</glyph>
<glyph name="one" format="2">
  <advance width="283"/>
  <unicode hex="0031"/>
  <outline>
    <contour>
      <point x="77" y="636" type="line"/>
      <point x="79" y="650" type="line"/>
      <point x="206" y="650" type="line"/>
      <point x="126" y="0" type="line"/>
      <point x="112" y="0" type="line"/>
      <point x="190" y="636" type="line"/>
    </contour>
  </outline>
</glyph>
<glyph name="five" format="2">
  <advance width="477"/>
  <unicode hex="0035"/>
  <outline>
    <contour>
      <point x="406" y="574" type="line"/>
      <point x="413" y="636" type="line"/>
      <point x="154" y="636" type="line"/>
      <point x="122" y="372" type="line"/>
      <point x="146" y="383"/>
      <point x="197" y="395"/>
      <point x="223" y="395" type="qcurve"/>
      <point x="262" y="395"/>
      <point x="329" y="367"/>
      <point x="377" y="319"/>
      <point x="405" y="253"/>
      <point x="405" y="215" type="qcurve"/>
      <point x="405" y="170"/>
      <point x="366" y="89"/>
      <point x="302" y="28"/>
      <point x="218" y="-8"/>
      <point x="173" y="-8" type="qcurve"/>
      <point x="132" y="-8"/>
      <point x="65" y="22"/>
      <point x="40" y="48" type="qcurve"/>
      <point x="52" y="58" type="line"/>
      <point x="73" y="33"/>
      <point x="135" y="6"/>
      <point x="173" y="6" type="qcurve"/>
      <point x="216" y="6"/>
      <point x="294" y="40"/>
      <point x="354" y="97"/>
      <point x="390" y="172"/>
      <point x="390" y="213" type="qcurve"/>
      <point x="390" y="248"/>
      <point x="364" y="310"/>
      <point x="318" y="355"/>
      <point x="256" y="381"/>
      <point x="219" y="381" type="qcurve"/>
      <point x="184" y="381"/>
      <point x="124" y="358"/>
      <point x="104" y="341" type="qcurve"/>
      <point x="142" y="650" type="line"/>
      <point x="429" y="650" type="line"/>
      <point x="420" y="574" type="line"/>
    </contour>
  </outline>
</glyph>
<glyph name="six" format="2">
  <advance width="530"/>
  <unicode hex="0036"/>
  <outline>
    <contour>
      <point x="53" y="173" type="qcurve"/>
      <point x="53" y="248"/>
      <point x="126" y="378"/>
      <point x="239" y="491"/>
      <point x="376" y="589"/>
      <point x="441" y="633" type="qcurve"/>
      <point x="449" y="620" type="line"/>
      <point x="377" y="576"/>
      <point x="265" y="490"/>
      <point x="181" y="411"/>
      <point x="126" y="342"/>
      <point x="111" y="314" type="qcurve"/>
      <point x="143" y="351"/>
      <point x="232" y="395"/>
      <point x="283" y="395" type="qcurve"/>
      <point x="322" y="395"/>
      <point x="389" y="367"/>
      <point x="437" y="317"/>
      <point x="464" y="251"/>
      <point x="464" y="213" type="qcurve"/>
      <point x="464" y="168"/>
      <point x="426" y="88"/>
      <point x="363" y="27"/>
      <point x="279" y="-8"/>
      <point x="234" y="-8" type="qcurve"/>
      <point x="195" y="-8"/>
      <point x="128" y="20"/>
      <point x="80" y="69"/>
      <point x="53" y="135"/>
    </contour>
    <contour>
      <point x="66" y="174" type="qcurve"/>
      <point x="66" y="139"/>
      <point x="92" y="77"/>
      <point x="137" y="32"/>
      <point x="199" y="6"/>
      <point x="235" y="6" type="qcurve"/>
      <point x="277" y="6"/>
      <point x="355" y="39"/>
      <point x="415" y="95"/>
      <point x="450" y="170"/>
      <point x="450" y="212" type="qcurve"/>
      <point x="450" y="247"/>
      <point x="424" y="309"/>
      <point x="379" y="355"/>
      <point x="317" y="381"/>
      <point x="281" y="381" type="qcurve"/>
      <point x="239" y="381"/>
      <point x="161" y="348"/>
      <point x="101" y="292"/>
      <point x="66" y="216"/>
    </contour>
  </outline>
</glyph>
<glyph name="eight" format="2">
  <advance width="531"/>
  <unicode hex="0038"/>
  <outline>
    <contour>
      <point x="161" y="500" type="qcurve"/>
      <point x="161" y="455"/>
      <point x="228" y="396"/>
      <point x="280" y="396" type="qcurve"/>
      <point x="309" y="396"/>
      <point x="361" y="415"/>
      <point x="400" y="450"/>
      <point x="423" y="497"/>
      <point x="423" y="525" type="qcurve"/>
      <point x="423" y="549"/>
      <point x="407" y="592"/>
      <point x="377" y="625"/>
      <point x="335" y="644"/>
      <point x="310" y="644" type="qcurve"/>
      <point x="280" y="644"/>
      <point x="226" y="620"/>
      <point x="185" y="580"/>
      <point x="161" y="528"/>
    </contour>
    <contour>
      <point x="67" y="176" type="qcurve"/>
      <point x="67" y="141"/>
      <point x="91" y="79"/>
      <point x="135" y="32"/>
      <point x="195" y="5"/>
      <point x="231" y="5" type="qcurve"/>
      <point x="273" y="5"/>
      <point x="352" y="39"/>
      <point x="412" y="96"/>
      <point x="448" y="172"/>
      <point x="448" y="213" type="qcurve"/>
      <point x="448" y="248"/>
      <point x="422" y="310"/>
      <point x="376" y="355"/>
      <point x="314" y="381"/>
      <point x="277" y="381" type="qcurve"/>
      <point x="235" y="381"/>
      <point x="159" y="348"/>
      <point x="101" y="293"/>
      <point x="67" y="218"/>
    </contour>
    <contour>
      <point x="52" y="175" type="qcurve"/>
      <point x="52" y="214"/>
      <point x="80" y="283"/>
      <point x="128" y="340"/>
      <point x="192" y="380"/>
      <point x="229" y="389" type="qcurve"/>
      <point x="192" y="401"/>
      <point x="148" y="463"/>
      <point x="148" y="504" type="qcurve"/>
      <point x="148" y="535"/>
      <point x="175" y="591"/>
      <point x="220" y="633"/>
      <point x="278" y="658"/>
      <point x="310" y="658" type="qcurve"/>
      <point x="338" y="658"/>
      <point x="384" y="638"/>
      <point x="418" y="602"/>
      <point x="437" y="555"/>
      <point x="437" y="528" type="qcurve"/>
      <point x="437" y="479"/>
      <point x="375" y="405"/>
      <point x="329" y="389" type="qcurve"/>
      <point x="359" y="382"/>
      <point x="408" y="350"/>
      <point x="443" y="304"/>
      <point x="462" y="247"/>
      <point x="462" y="215" type="qcurve"/>
      <point x="462" y="170"/>
      <point x="424" y="89"/>
      <point x="359" y="28"/>
      <point x="276" y="-8"/>
      <point x="231" y="-8" type="qcurve"/>
      <point x="192" y="-8"/>
      <point x="127" y="20"/>
      <point x="79" y="70"/>
      <point x="52" y="137"/>
    </contour>
  </outline>
</glyph>
<glyph name="semicolon" format="2">
  <advance width="223"/>
  <unicode hex="003B"/>
  <outline>
    <contour>
      <point x="114" y="86" type="line"/>
      <point x="100" y="60"/>
      <point x="83" y="29"/>
      <point x="67" y="1"/>
      <point x="50" y="-30"/>
      <point x="36" y="-56" type="qcurve"/>
      <point x="22" y="-56" type="line"/>
      <point x="91" y="86" type="line"/>
    </contour>
    <contour>
      <point x="108" y="268" type="qcurve"/>
      <point x="108" y="277"/>
      <point x="121" y="290"/>
      <point x="130" y="290" type="qcurve"/>
      <point x="138" y="290"/>
      <point x="148" y="280"/>
      <point x="148" y="272" type="qcurve"/>
      <point x="148" y="263"/>
      <point x="134" y="250"/>
      <point x="126" y="250" type="qcurve"/>
      <point x="118" y="250"/>
      <point x="108" y="260"/>
    </contour>
  </outline>
</glyph>
<glyph name="less" format="2">
  <advance width="558"/>
  <unicode hex="003C"/>
  <outline>
    <contour>
      <point x="442" y="1" type="line"/>
      <point x="440" y="-15" type="line"/>
      <point x="33" y="238" type="line"/>
      <point x="502" y="491" type="line"/>
      <point x="500" y="475" type="line"/>
      <point x="59" y="238" type="line"/>
    </contour>
  </outline>
</glyph>
<glyph name="equal" format="2">
  <advance width="670"/>
  <unicode hex="003D"/>
  <outline>
    <contour>
      <point x="574" y="164" type="line"/>
      <point x="572" y="150" type="line"/>
      <point x="66" y="150" type="line"/>
      <point x="68" y="164" type="line"/>
    </contour>
    <contour>
      <point x="598" y="358" type="line"/>
      <point x="596" y="344" type="line"/>
      <point x="90" y="344" type="line"/>
      <point x="92" y="358" type="line"/>
    </contour>
  </outline>
</glyph>
<glyph name="question" format="2">
  <advance width="481"/>
  <unicode hex="003F"/>
  <outline>
    <contour>
      <point x="91" y="596" type="qcurve"/>
      <point x="79" y="599" type="line"/>
      <point x="92" y="628"/>
      <point x="134" y="677"/>
      <point x="187" y="712"/>
      <point x="248" y="732"/>
      <point x="280" y="732" type="qcurve"/>
      <point x="318" y="732"/>
      <point x="382" y="705"/>
      <point x="428" y="657"/>
      <point x="453" y="593"/>
      <point x="453" y="557" type="qcurve"/>
      <point x="453" y="496"/>
      <point x="389" y="406"/>
      <point x="334" y="370" type="qcurve"/>
      <point x="313" y="356"/>
      <point x="277" y="337"/>
      <point x="249" y="313"/>
      <point x="230" y="275"/>
      <point x="226" y="242" type="qcurve"/>
      <point x="216" y="164" type="line"/>
      <point x="202" y="164" type="line"/>
      <point x="214" y="261" type="line"/>
      <point x="218" y="292"/>
      <point x="245" y="329"/>
      <point x="285" y="358"/>
      <point x="336" y="387"/>
      <point x="363" y="408" type="qcurve"/>
      <point x="403" y="440"/>
      <point x="439" y="514"/>
      <point x="439" y="557" type="qcurve"/>
      <point x="439" y="592"/>
      <point x="415" y="651"/>
      <point x="372" y="694"/>
      <point x="313" y="718"/>
      <point x="278" y="718" type="qcurve"/>
      <point x="248" y="718"/>
      <point x="192" y="700"/>
      <point x="142" y="668"/>
      <point x="103" y="623"/>
    </contour>
    <contour>
      <point x="192" y="25" type="qcurve"/>
      <point x="186" y="25"/>
      <point x="175" y="35"/>
      <point x="175" y="43" type="qcurve"/>
      <point x="175" y="53"/>
      <point x="189" y="65"/>
      <point x="197" y="65" type="qcurve"/>
      <point x="204" y="65"/>
      <point x="215" y="55"/>
      <point x="215" y="47" type="qcurve"/>
      <point x="215" y="38"/>
      <point x="200" y="25"/>
    </contour>
  </outline>
</glyph>
<glyph name="F" format="2">
  <advance width="491"/>
  <unicode hex="0046"/>
  <outline>
    <contour>
      <point x="473" y="612" type="line"/>
      <point x="482" y="686" type="line"/>
      <point x="204" y="686" type="line"/>
      <point x="164" y="360" type="line"/>
      <point x="417" y="360" type="line"/>
      <point x="415" y="346" type="line"/>
      <point x="162" y="346" type="line"/>
      <point x="121" y="14" type="line"/>
      <point x="206" y="14" type="line"/>
      <point x="204" y="0" type="line"/>
      <point x="30" y="0" type="line"/>
      <point x="32" y="14" type="line"/>
      <point x="107" y="14" type="line"/>
      <point x="190" y="686" type="line"/>
      <point x="114" y="686" type="line"/>
      <point x="116" y="700" type="line"/>
      <point x="484" y="700" type="line"/>
      <point x="484" y="701" type="line"/>
      <point x="498" y="701" type="line"/>
      <point x="498" y="700" type="line"/>
      <point x="496" y="686" type="line"/>
      <point x="487" y="612" type="line"/>
    </contour>
  </outline>
</glyph>
<glyph name="H" format="2">
  <advance width="771"/>
  <unicode hex="0048"/>
  <outline>
    <contour>
      <point x="762" y="700" type="line"/>
      <point x="760" y="686" type="line"/>
      <point x="683" y="686" type="line"/>
      <point x="600" y="14" type="line"/>
      <point x="678" y="14" type="line"/>
      <point x="676" y="0" type="line"/>
      <point x="502" y="0" type="line"/>
      <point x="504" y="14" type="line"/>
      <point x="586" y="14" type="line"/>
      <point x="627" y="346" type="line"/>
      <point x="163" y="346" type="line"/>
      <point x="122" y="14" type="line"/>
      <point x="206" y="14" type="line"/>
      <point x="204" y="0" type="line"/>
      <point x="30" y="0" type="line"/>
      <point x="32" y="14" type="line"/>
      <point x="108" y="14" type="line"/>
      <point x="191" y="686" type="line"/>
      <point x="114" y="686" type="line"/>
      <point x="116" y="700" type="line"/>
      <point x="290" y="700" type="line"/>
      <point x="288" y="686" type="line"/>
      <point x="205" y="686" type="line"/>
      <point x="165" y="360" type="line"/>
      <point x="629" y="360" type="line"/>
      <point x="669" y="686" type="line"/>
      <point x="586" y="686" type="line"/>
      <point x="588" y="700" type="line"/>
    </contour>
  </outline>
</glyph>
<glyph name="L" format="2">
  <advance width="587"/>
  <unicode hex="004C"/>
  <outline>
    <contour>
      <point x="291" y="700" type="line"/>
      <point x="289" y="686" type="line"/>
      <point x="205" y="686" type="line"/>
      <point x="123" y="14" type="line"/>
      <point x="523" y="14" type="line"/>
      <point x="533" y="89" type="line"/>
      <point x="547" y="89" type="line"/>
      <point x="536" y="0" type="line"/>
      <point x="31" y="0" type="line"/>
      <point x="33" y="14" type="line"/>
      <point x="108" y="14" type="line"/>
      <point x="191" y="686" type="line"/>
      <point x="115" y="686" type="line"/>
      <point x="117" y="700" type="line"/>
    </contour>
  </outline>
</glyph>
<glyph name="M" format="2">
  <advance width="932"/>
  <unicode hex="004D"/>
  <outline>
    <contour>
      <point x="922" y="700" type="line"/>
      <point x="920" y="686" type="line"/>
      <point x="843" y="686" type="line"/>
      <point x="760" y="14" type="line"/>
      <point x="843" y="14" type="line"/>
      <point x="841" y="0" type="line"/>
      <point x="667" y="0" type="line"/>
      <point x="669" y="14" type="line"/>
      <point x="746" y="14" type="line"/>
      <point x="824" y="645" type="line"/>
      <point x="831" y="690" type="line"/>
      <point x="729" y="568"/>
      <point x="547" y="336"/>
      <point x="461" y="228" type="qcurve"/>
      <point x="442" y="257"/>
      <point x="395" y="338"/>
      <point x="345" y="429"/>
      <point x="294" y="522"/>
      <point x="250" y="605"/>
      <point x="215" y="671"/>
      <point x="205" y="690" type="qcurve"/>
      <point x="200" y="645" type="line"/>
      <point x="122" y="14" type="line"/>
      <point x="204" y="14" type="line"/>
      <point x="202" y="0" type="line"/>
      <point x="28" y="0" type="line"/>
      <point x="30" y="14" type="line"/>
      <point x="108" y="14" type="line"/>
      <point x="191" y="686" type="line"/>
      <point x="112" y="686" type="line"/>
      <point x="114" y="700" type="line"/>
      <point x="214" y="700" type="line"/>
      <point x="252" y="630"/>
      <point x="314" y="519"/>
      <point x="371" y="418"/>
      <point x="430" y="317"/>
      <point x="465" y="257" type="qcurve"/>
      <point x="490" y="289"/>
      <point x="564" y="384"/>
      <point x="655" y="499"/>
      <point x="763" y="631"/>
      <point x="822" y="700" type="qcurve"/>
    </contour>
  </outline>
</glyph>
<glyph name="P" format="2">
  <advance width="533"/>
  <unicode hex="0050"/>
  <outline>
    <contour>
      <point x="206" y="14" type="line"/>
      <point x="204" y="0" type="line"/>
      <point x="30" y="0" type="line"/>
      <point x="32" y="14" type="line"/>
      <point x="108" y="14" type="line"/>
      <point x="191" y="686" type="line"/>
      <point x="114" y="686" type="line"/>
      <point x="116" y="700" type="line"/>
      <point x="333" y="700" type="line"/>
      <point x="360" y="700"/>
      <point x="423" y="683"/>
      <point x="476" y="645"/>
      <point x="512" y="582"/>
      <point x="512" y="537" type="qcurve"/>
      <point x="512" y="497"/>
      <point x="483" y="420"/>
      <point x="424" y="359"/>
      <point x="333" y="321"/>
      <point x="272" y="321" type="qcurve"/>
      <point x="160" y="321" type="line"/>
      <point x="122" y="14" type="line"/>
    </contour>
    <contour>
      <point x="162" y="335" type="line"/>
      <point x="277" y="335" type="line"/>
      <point x="341" y="335"/>
      <point x="426" y="378"/>
      <point x="477" y="439"/>
      <point x="498" y="509"/>
      <point x="498" y="536" type="qcurve"/>
      <point x="498" y="570"/>
      <point x="472" y="626"/>
      <point x="425" y="665"/>
      <point x="360" y="686"/>
      <point x="321" y="686" type="qcurve"/>
      <point x="205" y="686" type="line"/>
    </contour>
  </outline>
</glyph>
<glyph name="Q" format="2">
  <advance width="840"/>
  <unicode hex="0051"/>
  <outline>
    <contour>
      <point x="68" y="313" type="qcurve"/>
      <point x="68" y="394"/>
      <point x="135" y="537"/>
      <point x="246" y="645"/>
      <point x="392" y="708"/>
      <point x="472" y="708" type="qcurve"/>
      <point x="541" y="708"/>
      <point x="657" y="658"/>
      <point x="742" y="570"/>
      <point x="790" y="452"/>
      <point x="790" y="385" type="qcurve"/>
      <point x="790" y="321"/>
      <point x="747" y="205"/>
      <point x="672" y="108"/>
      <point x="570" y="35"/>
      <point x="511" y="14" type="qcurve"/>
      <point x="768" y="14" type="line"/>
      <point x="766" y="0" type="line"/>
      <point x="459" y="0" type="line"/>
      <point x="419" y="-8"/>
      <point x="384" y="-8" type="qcurve"/>
      <point x="316" y="-8"/>
      <point x="200" y="42"/>
      <point x="116" y="129"/>
      <point x="68" y="246"/>
    </contour>
    <contour>
      <point x="82" y="313" type="qcurve"/>
      <point x="82" y="249"/>
      <point x="127" y="137"/>
      <point x="208" y="54"/>
      <point x="318" y="6"/>
      <point x="383" y="6" type="qcurve"/>
      <point x="459" y="6"/>
      <point x="601" y="66"/>
      <point x="710" y="169"/>
      <point x="775" y="306"/>
      <point x="775" y="383" type="qcurve"/>
      <point x="775" y="447"/>
      <point x="729" y="561"/>
      <point x="647" y="645"/>
      <point x="536" y="694"/>
      <point x="470" y="694" type="qcurve"/>
      <point x="394" y="694"/>
      <point x="254" y="633"/>
      <point x="146" y="529"/>
      <point x="82" y="390"/>
    </contour>
  </outline>
</glyph>
<glyph name="T" format="2">
  <advance width="517"/>
  <unicode hex="0054"/>
  <outline>
    <contour>
      <point x="489" y="582" type="line"/>
      <point x="501" y="686" type="line"/>
      <point x="316" y="686" type="line"/>
      <point x="232" y="0" type="line"/>
      <point x="218" y="0" type="line"/>
      <point x="302" y="686" type="line"/>
      <point x="115" y="686" type="line"/>
      <point x="103" y="582" type="line"/>
      <point x="89" y="582" type="line"/>
      <point x="103" y="700" type="line"/>
      <point x="517" y="700" type="line"/>
      <point x="516" y="686" type="line"/>
      <point x="515" y="686" type="line"/>
      <point x="503" y="582" type="line"/>
    </contour>
  </outline>
</glyph>
<glyph name="V" format="2">
  <advance width="704"/>
  <unicode hex="0056"/>
  <outline>
    <contour>
      <point x="749" y="700" type="line"/>
      <point x="747" y="686" type="line"/>
      <point x="688" y="686" type="line"/>
      <point x="315" y="-31" type="line"/>
      <point x="119" y="686" type="line"/>
      <point x="46" y="686" type="line"/>
      <point x="48" y="700" type="line"/>
      <point x="222" y="700" type="line"/>
      <point x="220" y="686" type="line"/>
      <point x="134" y="686" type="line"/>
      <point x="313" y="26" type="line"/>
      <point x="315" y="16" type="line"/>
      <point x="316" y="12"/>
      <point x="318" y="4"/>
      <point x="319" y="1" type="qcurve"/>
      <point x="321" y="4"/>
      <point x="324" y="12"/>
      <point x="326" y="16" type="qcurve"/>
      <point x="328" y="20"/>
      <point x="331" y="26" type="qcurve"/>
      <point x="673" y="686" type="line"/>
      <point x="588" y="686" type="line"/>
      <point x="590" y="700" type="line"/>
    </contour>
  </outline>
</glyph>
<glyph name="W" format="2">
  <advance width="986"/>
  <unicode hex="0057"/>
  <outline>
    <contour>
      <point x="218" y="700" type="line"/>
      <point x="216" y="686" type="line"/>
      <point x="130" y="686" type="line"/>
      <point x="142" y="643"/>
      <point x="171" y="541"/>
      <point x="200" y="432"/>
      <point x="230" y="321"/>
      <point x="244" y="270" type="qcurve"/>
      <point x="276" y="149"/>
      <point x="309" y="25" type="qcurve"/>
      <point x="315" y="0" type="line"/>
      <point x="325" y="25" type="line"/>
      <point x="496" y="408" type="line"/>
      <point x="423" y="700" type="line"/>
      <point x="438" y="700" type="line"/>
      <point x="471" y="568"/>
      <point x="502" y="444" type="qcurve"/>
      <point x="515" y="391"/>
      <point x="543" y="277"/>
      <point x="569" y="167"/>
      <point x="592" y="66"/>
      <point x="601" y="25" type="qcurve"/>
      <point x="607" y="0" type="line"/>
      <point x="609" y="3"/>
      <point x="612" y="11"/>
      <point x="614" y="15" type="qcurve"/>
      <point x="616" y="19"/>
      <point x="619" y="25" type="qcurve"/>
      <point x="684" y="154"/>
      <point x="747" y="278" type="qcurve"/>
      <point x="774" y="331"/>
      <point x="832" y="444"/>
      <point x="890" y="555"/>
      <point x="945" y="658"/>
      <point x="968" y="700" type="qcurve"/>
      <point x="1028" y="700" type="line"/>
      <point x="1026" y="686" type="line"/>
      <point x="975" y="686" type="line"/>
      <point x="950" y="639"/>
      <point x="891" y="528"/>
      <point x="830" y="410"/>
      <point x="767" y="289"/>
      <point x="739" y="234" type="qcurve"/>
      <point x="672" y="103"/>
      <point x="603" y="-32" type="qcurve"/>
      <point x="504" y="367" type="line"/>
      <point x="499" y="388" type="line"/>
      <point x="490" y="367" type="line"/>
      <point x="456" y="290"/>
      <point x="423" y="217" type="qcurve"/>
      <point x="409" y="186"/>
      <point x="379" y="119"/>
      <point x="349" y="53"/>
      <point x="322" y="-7"/>
      <point x="311" y="-32" type="qcurve"/>
      <point x="257" y="147"/>
      <point x="168" y="506"/>
      <point x="115" y="686" type="qcurve"/>
      <point x="42" y="686" type="line"/>
      <point x="44" y="700" type="line"/>
    </contour>
  </outline>
</glyph>
<glyph name="Z" format="2">
  <advance width="644"/>
  <unicode hex="005A"/>
  <outline>
    <contour>
      <point x="143" y="700" type="qcurve"/>
      <point x="618" y="700" type="line"/>
      <point x="16" y="14" type="line"/>
      <point x="552" y="14" type="line"/>
      <point x="569" y="148" type="line"/>
      <point x="583" y="148" type="line"/>
      <point x="566" y="14" type="line"/>
      <point x="567" y="14" type="line"/>
      <point x="565" y="0" type="line"/>
      <point x="-11" y="0" type="line"/>
      <point x="139" y="180"/>
      <point x="439" y="517"/>
      <point x="588" y="686" type="qcurve"/>
      <point x="155" y="686" type="line"/>
      <point x="124" y="686"/>
      <point x="99" y="702"/>
      <point x="101" y="731" type="qcurve"/>
      <point x="101" y="735" type="line"/>
      <point x="117" y="735" type="line"/>
      <point x="116" y="723" type="line"/>
      <point x="115" y="714"/>
      <point x="126" y="700"/>
    </contour>
  </outline>
</glyph>
<glyph name="backslash" format="2">
  <advance width="381"/>
  <unicode hex="005C"/>
  <outline>
    <contour>
      <point x="116" y="736" type="line"/>
      <point x="301" y="-19" type="line"/>
      <point x="287" y="-19" type="line"/>
      <point x="102" y="736" type="line"/>
    </contour>
  </outline>
</glyph>
<glyph name="b" format="2">
  <advance width="526"/>
  <unicode hex="0062"/>
  <outline>
    <contour>
      <point x="472" y="188" type="qcurve"/>
      <point x="467" y="147"/>
      <point x="428" y="77"/>
      <point x="369" y="24"/>
      <point x="294" y="-6"/>
      <point x="254" y="-6" type="qcurve"/>
      <point x="191" y="-6"/>
      <point x="102" y="63"/>
      <point x="87" y="117" type="qcurve"/>
      <point x="85" y="101"/>
      <point x="83" y="70"/>
      <point x="81" y="54" type="qcurve"/>
      <point x="76" y="14" type="line"/>
      <point x="74" y="0" type="line"/>
      <point x="-20" y="0" type="line"/>
      <point x="-18" y="14" type="line"/>
      <point x="61" y="14" type="line"/>
      <point x="150" y="736" type="line"/>
      <point x="70" y="736" type="line"/>
      <point x="72" y="750" type="line"/>
      <point x="166" y="750" type="line"/>
      <point x="150" y="623"/>
      <point x="138" y="519" type="qcurve"/>
      <point x="133" y="475"/>
      <point x="122" y="388"/>
      <point x="113" y="317"/>
      <point x="107" y="267"/>
      <point x="106" y="260" type="qcurve"/>
      <point x="135" y="314"/>
      <point x="240" y="383"/>
      <point x="302" y="383" type="qcurve"/>
      <point x="342" y="383"/>
      <point x="409" y="352"/>
      <point x="455" y="300"/>
      <point x="477" y="228"/>
    </contour>
    <contour>
      <point x="458" y="188" type="qcurve"/>
      <point x="462" y="225"/>
      <point x="442" y="291"/>
      <point x="400" y="341"/>
      <point x="337" y="369"/>
      <point x="300" y="369" type="qcurve"/>
      <point x="259" y="369"/>
      <point x="186" y="337"/>
      <point x="129" y="283"/>
      <point x="96" y="210"/>
      <point x="96" y="170" type="qcurve"/>
      <point x="96" y="136"/>
      <point x="120" y="77"/>
      <point x="163" y="33"/>
      <point x="221" y="8"/>
      <point x="256" y="8" type="qcurve"/>
      <point x="293" y="8"/>
      <point x="363" y="36"/>
      <point x="417" y="85"/>
      <point x="453" y="150"/>
    </contour>
  </outline>
</glyph>
<glyph name="f" format="2">
  <advance width="266"/>
  <unicode hex="0066"/>
  <outline>
    <contour>
      <point x="86" y="37" type="line"/>
      <point x="83" y="14" type="line"/>
      <point x="184" y="14" type="line"/>
      <point x="182" y="0" type="line"/>
      <point x="-13" y="0" type="line"/>
      <point x="-11" y="14" type="line"/>
      <point x="68" y="14" type="line"/>
      <point x="111" y="361" type="line"/>
      <point x="46" y="361" type="line"/>
      <point x="48" y="375" type="line"/>
      <point x="113" y="375" type="line"/>
      <point x="131" y="518" type="line"/>
      <point x="138" y="573"/>
      <point x="178" y="659"/>
      <point x="235" y="717"/>
      <point x="306" y="748"/>
      <point x="344" y="750" type="qcurve"/>
      <point x="342" y="736" type="line"/>
      <point x="308" y="736"/>
      <point x="242" y="706"/>
      <point x="188" y="650"/>
      <point x="151" y="571"/>
      <point x="145" y="522" type="qcurve"/>
      <point x="127" y="375" type="line"/>
      <point x="257" y="375" type="line"/>
      <point x="255" y="361" type="line"/>
      <point x="125" y="361" type="line"/>
      <point x="85" y="37" type="line"/>
    </contour>
  </outline>
</glyph>
<glyph name="h" format="2">
  <advance width="477"/>
  <unicode hex="0068"/>
  <outline>
    <contour>
      <point x="358" y="42" type="line"/>
      <point x="355" y="14" type="line"/>
      <point x="435" y="14" type="line"/>
      <point x="433" y="0" type="line"/>
      <point x="260" y="0" type="line"/>
      <point x="262" y="14" type="line"/>
      <point x="340" y="14" type="line"/>
      <point x="344" y="42" type="line"/>
      <point x="373" y="277" type="line"/>
      <point x="376" y="313"/>
      <point x="333" y="366"/>
      <point x="289" y="368" type="qcurve"/>
      <point x="255" y="368"/>
      <point x="191" y="346"/>
      <point x="140" y="307"/>
      <point x="106" y="252"/>
      <point x="102" y="220" type="qcurve"/>
      <point x="79" y="37" type="line"/>
      <point x="80" y="37" type="line"/>
      <point x="77" y="14" type="line"/>
      <point x="158" y="14" type="line"/>
      <point x="156" y="0" type="line"/>
      <point x="-19" y="0" type="line"/>
      <point x="-17" y="14" type="line"/>
      <point x="62" y="14" type="line"/>
      <point x="151" y="736" type="line"/>
      <point x="72" y="736" type="line"/>
      <point x="74" y="750" type="line"/>
      <point x="164" y="750" type="line"/>
      <point x="106" y="277" type="line"/>
      <point x="132" y="324"/>
      <point x="227" y="382"/>
      <point x="284" y="382" type="qcurve"/>
      <point x="337" y="382"/>
      <point x="391" y="320"/>
      <point x="386" y="270" type="qcurve"/>
    </contour>
  </outline>
</glyph>
<glyph name="j" format="2">
  <advance width="175"/>
  <unicode hex="006A"/>
  <outline>
    <contour>
      <point x="-21" y="-180" type="qcurve"/>
      <point x="-32" y="-171" type="line"/>
      <point x="-3" y="-143"/>
      <point x="37" y="-62"/>
      <point x="43" y="-11" type="qcurve"/>
      <point x="88" y="361" type="line"/>
      <point x="8" y="361" type="line"/>
      <point x="10" y="375" type="line"/>
      <point x="104" y="375" type="line"/>
      <point x="57" y="-7" type="line"/>
      <point x="50" y="-64"/>
      <point x="9" y="-151"/>
    </contour>
    <contour>
      <point x="92" y="498" type="qcurve"/>
      <point x="92" y="507"/>
      <point x="106" y="520"/>
      <point x="115" y="520" type="qcurve"/>
      <point x="123" y="520"/>
      <point x="133" y="510"/>
      <point x="133" y="502" type="qcurve"/>
      <point x="133" y="493"/>
      <point x="119" y="480"/>
      <point x="110" y="480" type="qcurve"/>
      <point x="102" y="480"/>
      <point x="92" y="490"/>
    </contour>
  </outline>
</glyph>
<glyph name="p" format="2">
  <advance width="528"/>
  <unicode hex="0070"/>
  <outline>
    <contour>
      <point x="121" y="375" type="line"/>
      <point x="119" y="353"/>
      <point x="116" y="332" type="qcurve"/>
      <point x="114" y="314"/>
      <point x="109" y="274"/>
      <point x="107" y="260" type="qcurve"/>
      <point x="136" y="314"/>
      <point x="241" y="383"/>
      <point x="303" y="383" type="qcurve"/>
      <point x="340" y="383"/>
      <point x="404" y="356"/>
      <point x="449" y="309"/>
      <point x="475" y="245"/>
      <point x="475" y="208" type="qcurve"/>
      <point x="475" y="164"/>
      <point x="439" y="86"/>
      <point x="379" y="28"/>
      <point x="299" y="-6"/>
      <point x="255" y="-6" type="qcurve"/>
      <point x="193" y="-6"/>
      <point x="103" y="63"/>
      <point x="89" y="117" type="qcurve"/>
      <point x="87" y="101"/>
      <point x="84" y="70"/>
      <point x="82" y="54" type="qcurve"/>
      <point x="57" y="-144" type="line"/>
      <point x="58" y="-144" type="line"/>
      <point x="55" y="-167" type="line"/>
      <point x="136" y="-167" type="line"/>
      <point x="134" y="-181" type="line"/>
      <point x="-41" y="-181" type="line"/>
      <point x="-39" y="-167" type="line"/>
      <point x="40" y="-167" type="line"/>
      <point x="105" y="361" type="line"/>
      <point x="26" y="361" type="line"/>
      <point x="27" y="375" type="line"/>
    </contour>
    <contour>
      <point x="461" y="207" type="qcurve"/>
      <point x="461" y="241"/>
      <point x="437" y="300"/>
      <point x="395" y="344"/>
      <point x="336" y="369"/>
      <point x="302" y="369" type="qcurve"/>
      <point x="261" y="369"/>
      <point x="187" y="337"/>
      <point x="131" y="283"/>
      <point x="97" y="210"/>
      <point x="97" y="170" type="qcurve"/>
      <point x="97" y="136"/>
      <point x="121" y="77"/>
      <point x="164" y="33"/>
      <point x="222" y="8"/>
      <point x="257" y="8" type="qcurve"/>
      <point x="297" y="8"/>
      <point x="371" y="40"/>
      <point x="428" y="94"/>
      <point x="461" y="166"/>
    </contour>
  </outline>
</glyph>
<glyph name="w" format="2">
  <advance width="690"/>
  <unicode hex="0077"/>
  <outline>
    <contour>
      <point x="578" y="375" type="line"/>
      <point x="697" y="375" type="line"/>
      <point x="695" y="361" type="line"/>
      <point x="644" y="361" type="line"/>
      <point x="588" y="264"/>
      <point x="480" y="74"/>
      <point x="426" y="-23" type="qcurve"/>
      <point x="338" y="251" type="line"/>
      <point x="194" y="-23" type="line"/>
      <point x="162" y="74"/>
      <point x="100" y="264"/>
      <point x="69" y="361" type="qcurve"/>
      <point x="14" y="361" type="line"/>
      <point x="16" y="375" type="line"/>
      <point x="154" y="375" type="line"/>
      <point x="152" y="361" type="line"/>
      <point x="84" y="361" type="line"/>
      <point x="113" y="272"/>
      <point x="169" y="96"/>
      <point x="198" y="8" type="qcurve"/>
      <point x="232" y="73"/>
      <point x="299" y="201"/>
      <point x="332" y="266" type="qcurve"/>
      <point x="324" y="293"/>
      <point x="305" y="348"/>
      <point x="297" y="375" type="qcurve"/>
      <point x="312" y="375" type="line"/>
      <point x="319" y="352"/>
      <point x="337" y="296"/>
      <point x="356" y="236"/>
      <point x="376" y="174"/>
      <point x="385" y="146" type="qcurve"/>
      <point x="406" y="78"/>
      <point x="429" y="8" type="qcurve"/>
      <point x="630" y="361" type="line"/>
      <point x="576" y="361" type="line"/>
    </contour>
  </outline>
</glyph>
<glyph name="braceleft" format="2">
  <advance width="268"/>
  <unicode hex="007B"/>
  <outline>
    <contour>
      <point x="37" y="287" type="qcurve"/>
      <point x="40" y="311" type="line"/>
      <point x="65" y="312"/>
      <point x="99" y="339"/>
      <point x="121" y="379"/>
      <point x="133" y="426"/>
      <point x="136" y="446" type="qcurve"/>
      <point x="158" y="628" type="line"/>
      <point x="164" y="673"/>
      <point x="184" y="722"/>
      <point x="211" y="743"/>
      <point x="243" y="746"/>
      <point x="259" y="746" type="qcurve"/>
      <point x="296" y="746" type="line"/>
      <point x="294" y="732" type="line"/>
      <point x="237" y="732" type="line"/>
      <point x="206" y="732"/>
      <point x="179" y="680"/>
      <point x="171" y="620" type="qcurve"/>
      <point x="153" y="470" type="line"/>
      <point x="147" y="423"/>
      <point x="129" y="363"/>
      <point x="106" y="326"/>
      <point x="80" y="306"/>
      <point x="66" y="299" type="qcurve"/>
      <point x="78" y="291"/>
      <point x="99" y="271"/>
      <point x="113" y="233"/>
      <point x="117" y="174"/>
      <point x="111" y="128" type="qcurve"/>
      <point x="92" y="-22" type="line"/>
      <point x="84" y="-82"/>
      <point x="100" y="-134"/>
      <point x="131" y="-134" type="qcurve"/>
      <point x="188" y="-134" type="line"/>
      <point x="186" y="-148" type="line"/>
      <point x="149" y="-148" type="line"/>
      <point x="129" y="-148"/>
      <point x="98" y="-144"/>
      <point x="79" y="-116"/>
      <point x="75" y="-53"/>
      <point x="82" y="6" type="qcurve"/>
      <point x="100" y="152" type="line"/>
      <point x="103" y="172"/>
      <point x="102" y="219"/>
      <point x="89" y="259"/>
      <point x="61" y="286"/>
    </contour>
  </outline>
</glyph>
<glyph name="bar" format="2">
  <advance width="220"/>
  <unicode hex="007C"/>
  <outline>
    <contour>
      <point x="42" y="-232" type="line"/>
      <point x="156" y="700" type="line"/>
      <point x="170" y="700" type="line"/>
      <point x="56" y="-232" type="line"/>
    </contour>
  </outline>
</glyph>
<glyph name="exclamdown" format="2">
  <advance width="221"/>
  <unicode hex="00A1"/>
  <outline>
    <contour>
      <point x="117" y="374" type="line"/>
      <point x="131" y="374" type="line"/>
      <point x="59" y="-210" type="line"/>
      <point x="45" y="-210" type="line"/>
    </contour>
    <contour>
      <point x="140" y="504" type="qcurve"/>
      <point x="148" y="504"/>
      <point x="158" y="492"/>
      <point x="157" y="484" type="qcurve"/>
      <point x="156" y="475"/>
      <point x="143" y="464"/>
      <point x="135" y="464" type="qcurve"/>
      <point x="128" y="464"/>
      <point x="117" y="475"/>
      <point x="118" y="484" type="qcurve"/>
      <point x="119" y="492"/>
      <point x="133" y="504"/>
    </contour>
  </outline>
</glyph>
<glyph name="sterling" format="2">
  <advance width="560"/>
  <unicode hex="00A3"/>
  <outline>
    <contour>
      <point x="100" y="14" type="qcurve"/>
      <point x="347" y="14" type="line"/>
      <point x="407" y="14"/>
      <point x="461" y="35"/>
      <point x="465" y="66" type="qcurve"/>
      <point x="472" y="123" type="line"/>
      <point x="487" y="123" type="line"/>
      <point x="482" y="86" type="line"/>
      <point x="480" y="70"/>
      <point x="473" y="39"/>
      <point x="449" y="15"/>
      <point x="399" y="0"/>
      <point x="353" y="0" type="qcurve"/>
      <point x="11" y="0" type="line"/>
      <point x="13" y="14" type="line"/>
      <point x="57" y="14" type="line"/>
      <point x="75" y="14"/>
      <point x="97" y="29"/>
      <point x="112" y="63"/>
      <point x="122" y="121"/>
      <point x="127" y="164" type="qcurve"/>
      <point x="145" y="311" type="line"/>
      <point x="80" y="311" type="line"/>
      <point x="82" y="325" type="line"/>
      <point x="147" y="325" type="line"/>
      <point x="168" y="500" type="line"/>
      <point x="176" y="570"/>
      <point x="273" y="634"/>
      <point x="344" y="634" type="qcurve"/>
      <point x="377" y="634"/>
      <point x="425" y="621"/>
      <point x="459" y="598"/>
      <point x="481" y="565"/>
      <point x="489" y="545" type="qcurve"/>
      <point x="478" y="539" type="line"/>
      <point x="468" y="563"/>
      <point x="446" y="594"/>
      <point x="414" y="612"/>
      <point x="372" y="620"/>
      <point x="342" y="620" type="qcurve"/>
      <point x="300" y="620"/>
      <point x="241" y="601"/>
      <point x="204" y="569"/>
      <point x="186" y="527"/>
      <point x="183" y="504" type="qcurve"/>
      <point x="161" y="325" type="line"/>
      <point x="290" y="325" type="line"/>
      <point x="288" y="311" type="line"/>
      <point x="159" y="311" type="line"/>
      <point x="139" y="149" type="line"/>
      <point x="134" y="109" type="line"/>
      <point x="130" y="80"/>
      <point x="116" y="28"/>
    </contour>
  </outline>
</glyph>
<glyph name="currency" format="2">
  <advance width="458"/>
  <unicode hex="00A4"/>
  <outline>
    <contour>
      <point x="107" y="347" type="qcurve"/>
      <point x="107" y="376"/>
      <point x="131" y="427"/>
      <point x="151" y="448" type="qcurve"/>
      <point x="118" y="486" type="line"/>
      <point x="129" y="496" type="line"/>
      <point x="162" y="458" type="line"/>
      <point x="182" y="475"/>
      <point x="231" y="494"/>
      <point x="257" y="494" type="qcurve"/>
      <point x="283" y="494"/>
      <point x="327" y="474"/>
      <point x="342" y="457" type="qcurve"/>
      <point x="385" y="495" type="line"/>
      <point x="394" y="485" type="line"/>
      <point x="351" y="447" type="line"/>
      <point x="373" y="417"/>
      <point x="373" y="374" type="qcurve"/>
      <point x="373" y="343"/>
      <point x="347" y="292"/>
      <point x="326" y="271" type="qcurve"/>
      <point x="362" y="230" type="line"/>
      <point x="351" y="220" type="line"/>
      <point x="315" y="261" type="line"/>
      <point x="274" y="228"/>
      <point x="224" y="228" type="qcurve"/>
      <point x="173" y="228"/>
      <point x="141" y="260" type="qcurve"/>
      <point x="95" y="219" type="line"/>
      <point x="86" y="229" type="line"/>
      <point x="132" y="270" type="line"/>
      <point x="107" y="301"/>
    </contour>
    <contour>
      <point x="121" y="349" type="qcurve"/>
      <point x="121" y="326"/>
      <point x="137" y="287"/>
      <point x="165" y="259"/>
      <point x="203" y="242"/>
      <point x="226" y="242" type="qcurve"/>
      <point x="252" y="242"/>
      <point x="300" y="263"/>
      <point x="337" y="298"/>
      <point x="359" y="346"/>
      <point x="359" y="373" type="qcurve"/>
      <point x="359" y="418"/>
      <point x="300" y="480"/>
      <point x="255" y="480" type="qcurve"/>
      <point x="229" y="480"/>
      <point x="180" y="459"/>
      <point x="143" y="424"/>
      <point x="121" y="376"/>
    </contour>
  </outline>
</glyph>
<glyph name="degree" format="2">
  <advance width="287"/>
  <unicode hex="00B0"/>
  <outline>
    <contour>
      <point x="171" y="498" type="qcurve"/>
      <point x="199" y="498"/>
      <point x="241" y="537"/>
      <point x="241" y="566" type="qcurve"/>
      <point x="241" y="590"/>
      <point x="209" y="622"/>
      <point x="186" y="622" type="qcurve"/>
      <point x="157" y="622"/>
      <point x="115" y="583"/>
      <point x="115" y="554" type="qcurve"/>
      <point x="115" y="530"/>
      <point x="147" y="498"/>
    </contour>
    <contour>
      <point x="101" y="551" type="qcurve"/>
      <point x="101" y="587"/>
      <point x="152" y="636"/>
      <point x="188" y="636" type="qcurve"/>
      <point x="218" y="636"/>
      <point x="255" y="597"/>
      <point x="255" y="568" type="qcurve"/>
      <point x="255" y="532"/>
      <point x="204" y="484"/>
      <point x="169" y="484" type="qcurve"/>
      <point x="138" y="484"/>
      <point x="101" y="522"/>
    </contour>
  </outline>
</glyph>
<glyph name="plusminus" format="2">
  <advance width="565"/>
  <unicode hex="00B1"/>
  <outline>
    <contour>
      <point x="271" y="211" type="line"/>
      <point x="293" y="385" type="line"/>
      <point x="120" y="385" type="line"/>
      <point x="121" y="399" type="line"/>
      <point x="294" y="399" type="line"/>
      <point x="315" y="571" type="line"/>
      <point x="329" y="571" type="line"/>
      <point x="308" y="399" type="line"/>
      <point x="481" y="399" type="line"/>
      <point x="480" y="385" type="line"/>
      <point x="307" y="385" type="line"/>
      <point x="285" y="211" type="line"/>
    </contour>
    <contour>
      <point x="449" y="136" type="line"/>
      <point x="89" y="136" type="line"/>
      <point x="91" y="150" type="line"/>
      <point x="451" y="150" type="line"/>
    </contour>
  </outline>
</glyph>
<glyph name="threesuperior" format="2">
  <advance width="305"/>
  <unicode hex="00B3"/>
  <outline>
    <contour>
      <point x="122" y="663" type="line"/>
      <point x="126" y="693" type="line"/>
      <point x="127" y="700" type="line"/>
      <point x="284" y="700" type="line"/>
      <point x="171" y="576" type="line"/>
      <point x="213" y="578"/>
      <point x="269" y="527"/>
      <point x="269" y="486" type="qcurve"/>
      <point x="269" y="463"/>
      <point x="250" y="423"/>
      <point x="219" y="393"/>
      <point x="178" y="376"/>
      <point x="156" y="376" type="qcurve"/>
      <point x="133" y="376"/>
      <point x="98" y="394"/>
      <point x="86" y="409" type="qcurve"/>
      <point x="92" y="415" type="line"/>
      <point x="103" y="401"/>
      <point x="135" y="383"/>
      <point x="155" y="383" type="qcurve"/>
      <point x="176" y="383"/>
      <point x="215" y="400"/>
      <point x="244" y="428"/>
      <point x="262" y="465"/>
      <point x="262" y="485" type="qcurve"/>
      <point x="262" y="520"/>
      <point x="214" y="569"/>
      <point x="178" y="569" type="qcurve"/>
      <point x="162" y="569"/>
      <point x="146" y="558" type="qcurve"/>
      <point x="268" y="693" type="line"/>
      <point x="133" y="693" type="line"/>
      <point x="129" y="663" type="line"/>
    </contour>
  </outline>
</glyph>
<glyph name="acute" format="2">
  <advance width="218"/>
  <unicode hex="00B4"/>
  <outline>
    <contour>
      <point x="159" y="479" type="line"/>
      <point x="265" y="612" type="line"/>
      <point x="281" y="612" type="line"/>
      <point x="175" y="479" type="line"/>
    </contour>
  </outline>
</glyph>
<glyph name="mu" format="2">
  <advance width="525"/>
  <unicode hex="00B5"/>
  <outline>
    <contour>
      <point x="123" y="333" type="line"/>
      <point x="126" y="361" type="line"/>
      <point x="46" y="361" type="line"/>
      <point x="48" y="375" type="line"/>
      <point x="142" y="375" type="line"/>
      <point x="137" y="333" type="line"/>
      <point x="108" y="98" type="line"/>
      <point x="105" y="62"/>
      <point x="148" y="9"/>
      <point x="192" y="7" type="qcurve"/>
      <point x="226" y="7"/>
      <point x="290" y="29"/>
      <point x="341" y="68"/>
      <point x="375" y="123"/>
      <point x="379" y="155" type="qcurve"/>
      <point x="401" y="338" type="line"/>
      <point x="404" y="361" type="line"/>
      <point x="323" y="361" type="line"/>
      <point x="325" y="375" type="line"/>
      <point x="420" y="375" type="line"/>
      <point x="375" y="14" type="line"/>
      <point x="455" y="14" type="line"/>
      <point x="454" y="0" type="line"/>
      <point x="364" y="0" type="line"/>
      <point x="375" y="98" type="line"/>
      <point x="349" y="50"/>
      <point x="253" y="-7"/>
      <point x="197" y="-7" type="qcurve"/>
      <point x="160" y="-7"/>
      <point x="112" y="24"/>
      <point x="101" y="50" type="qcurve"/>
      <point x="70" y="-201" type="line"/>
      <point x="57" y="-201" type="line"/>
      <point x="95" y="108" type="line"/>
    </contour>
  </outline>
</glyph>
<glyph name="periodcentered" format="2">
  <advance width="185"/>
  <unicode hex="00B7"/>
  <outline>
    <contour>
      <point x="72" y="278" type="qcurve"/>
      <point x="72" y="287"/>
      <point x="86" y="300"/>
      <point x="95" y="300" type="qcurve"/>
      <point x="103" y="300"/>
      <point x="113" y="290"/>
      <point x="113" y="282" type="qcurve"/>
      <point x="113" y="273"/>
      <point x="99" y="260"/>
      <point x="90" y="260" type="qcurve"/>
      <point x="82" y="260"/>
      <point x="72" y="270"/>
    </contour>
  </outline>
</glyph>
<glyph name="cedilla" format="2">
  <advance width="452"/>
  <unicode hex="00B8"/>
  <outline>
    <contour>
      <point x="193" y="0" type="line"/>
      <point x="208" y="0" type="line"/>
      <point x="207" y="-6" type="line"/>
      <point x="205" y="-19"/>
      <point x="210" y="-37"/>
      <point x="221" y="-49"/>
      <point x="235" y="-57"/>
      <point x="241" y="-61" type="qcurve"/>
      <point x="260" y="-75"/>
      <point x="275" y="-109"/>
      <point x="275" y="-122" type="qcurve"/>
      <point x="275" y="-148"/>
      <point x="259" y="-185"/>
      <point x="232" y="-211"/>
      <point x="197" y="-223"/>
      <point x="179" y="-223" type="qcurve"/>
      <point x="153" y="-223"/>
      <point x="111" y="-194"/>
      <point x="105" y="-165" type="qcurve"/>
      <point x="120" y="-161" type="line"/>
      <point x="124" y="-182"/>
      <point x="156" y="-209"/>
      <point x="181" y="-209" type="qcurve"/>
      <point x="214" y="-209"/>
      <point x="260" y="-163"/>
      <point x="260" y="-128" type="qcurve"/>
      <point x="260" y="-104"/>
      <point x="237" y="-77"/>
      <point x="210" y="-56"/>
      <point x="189" y="-35"/>
      <point x="191" y="-16" type="qcurve"/>
    </contour>
  </outline>
</glyph>
<glyph name="guillemotright" format="2">
  <advance width="458"/>
  <unicode hex="00BB"/>
  <outline>
    <contour>
      <point x="43" y="93" type="line"/>
      <point x="203" y="239" type="line"/>
      <point x="79" y="383" type="line"/>
      <point x="81" y="400" type="line"/>
      <point x="232" y="239" type="line"/>
      <point x="41" y="77" type="line"/>
    </contour>
    <contour>
      <point x="214" y="93" type="line"/>
      <point x="374" y="239" type="line"/>
      <point x="250" y="383" type="line"/>
      <point x="252" y="400" type="line"/>
      <point x="403" y="239" type="line"/>
      <point x="212" y="77" type="line"/>
    </contour>
  </outline>
</glyph>
<glyph name="onequarter" format="2">
  <advance width="789"/>
  <unicode hex="00BC"/>
  <outline>
    <contour>
      <point x="701" y="10" type="line"/>
      <point x="701" y="0" type="line"/>
      <point x="571" y="0" type="line"/>
      <point x="572" y="10" type="line"/>
      <point x="631" y="10" type="line"/>
      <point x="646" y="136" type="line"/>
      <point x="385" y="136" type="line"/>
      <point x="700" y="490" type="line"/>
      <point x="658" y="147" type="line"/>
      <point x="730" y="147" type="line"/>
      <point x="729" y="136" type="line"/>
      <point x="657" y="136" type="line"/>
      <point x="641" y="10" type="line"/>
    </contour>
    <contour>
      <point x="686" y="459" type="line"/>
      <point x="409" y="147" type="line"/>
      <point x="648" y="147" type="line"/>
    </contour>
    <contour>
      <point x="160" y="-19" type="line"/>
      <point x="531" y="735" type="line"/>
      <point x="545" y="735" type="line"/>
      <point x="174" y="-19" type="line"/>
    </contour>
    <contour>
      <point x="89" y="685" type="line"/>
      <point x="91" y="695" type="line"/>
      <point x="181" y="695" type="line"/>
      <point x="124" y="234" type="line"/>
      <point x="114" y="234" type="line"/>
      <point x="169" y="685" type="line"/>
    </contour>
  </outline>
</glyph>
<glyph name="threequarters" format="2">
  <advance width="988"/>
  <unicode hex="00BE"/>
  <outline>
    <contour>
      <point x="904" y="10" type="line"/>
      <point x="904" y="0" type="line"/>
      <point x="774" y="0" type="line"/>
      <point x="775" y="10" type="line"/>
      <point x="834" y="10" type="line"/>
      <point x="849" y="136" type="line"/>
      <point x="587" y="136" type="line"/>
      <point x="903" y="490" type="line"/>
      <point x="861" y="147" type="line"/>
      <point x="933" y="147" type="line"/>
      <point x="932" y="136" type="line"/>
      <point x="860" y="136" type="line"/>
      <point x="844" y="10" type="line"/>
    </contour>
    <contour>
      <point x="889" y="459" type="line"/>
      <point x="611" y="147" type="line"/>
      <point x="851" y="147" type="line"/>
    </contour>
    <contour>
      <point x="111" y="649" type="line"/>
      <point x="117" y="697" type="line"/>
      <point x="119" y="708" type="line"/>
      <point x="365" y="708" type="line"/>
      <point x="275" y="610"/>
      <point x="188" y="513" type="qcurve"/>
      <point x="221" y="515"/>
      <point x="277" y="495"/>
      <point x="318" y="458"/>
      <point x="341" y="404"/>
      <point x="341" y="373" type="qcurve"/>
      <point x="341" y="338"/>
      <point x="312" y="275"/>
      <point x="262" y="228"/>
      <point x="198" y="200"/>
      <point x="164" y="200" type="qcurve"/>
      <point x="129" y="200"/>
      <point x="74" y="228"/>
      <point x="55" y="251" type="qcurve"/>
      <point x="57" y="253"/>
      <point x="62" y="259"/>
      <point x="64" y="261" type="qcurve"/>
      <point x="80" y="238"/>
      <point x="131" y="211"/>
      <point x="163" y="211" type="qcurve"/>
      <point x="195" y="211"/>
      <point x="255" y="237"/>
      <point x="302" y="281"/>
      <point x="330" y="339"/>
      <point x="330" y="371" type="qcurve"/>
      <point x="330" y="399"/>
      <point x="310" y="447"/>
      <point x="274" y="482"/>
      <point x="226" y="502"/>
      <point x="198" y="502" type="qcurve"/>
      <point x="172" y="502"/>
      <point x="149" y="485" type="qcurve"/>
      <point x="339" y="697" type="line"/>
      <point x="128" y="697" type="line"/>
      <point x="122" y="649" type="line"/>
    </contour>
    <contour>
      <point x="329" y="-19" type="line"/>
      <point x="700" y="736" type="line"/>
      <point x="714" y="736" type="line"/>
      <point x="343" y="-19" type="line"/>
    </contour>
  </outline>
</glyph>
<glyph name="questiondown" format="2">
  <advance width="483"/>
  <unicode hex="00BF"/>
  <outline>
    <contour>
      <point x="392" y="-57" type="qcurve"/>
      <point x="404" y="-60" type="line"/>
      <point x="391" y="-89"/>
      <point x="349" y="-138"/>
      <point x="296" y="-173"/>
      <point x="235" y="-193"/>
      <point x="203" y="-193" type="qcurve"/>
      <point x="165" y="-193"/>
      <point x="101" y="-166"/>
      <point x="55" y="-118"/>
      <point x="30" y="-54"/>
      <point x="30" y="-18" type="qcurve"/>
      <point x="30" y="43"/>
      <point x="94" y="133"/>
      <point x="149" y="169" type="qcurve"/>
      <point x="170" y="183"/>
      <point x="206" y="202"/>
      <point x="234" y="226"/>
      <point x="253" y="264"/>
      <point x="257" y="297" type="qcurve"/>
      <point x="267" y="375" type="line"/>
      <point x="281" y="375" type="line"/>
      <point x="269" y="278" type="line"/>
      <point x="265" y="247"/>
      <point x="238" y="210"/>
      <point x="197" y="181"/>
      <point x="147" y="152"/>
      <point x="120" y="131" type="qcurve"/>
      <point x="80" y="99"/>
      <point x="44" y="25"/>
      <point x="44" y="-18" type="qcurve"/>
      <point x="44" y="-53"/>
      <point x="68" y="-112"/>
      <point x="111" y="-155"/>
      <point x="170" y="-179"/>
      <point x="205" y="-179" type="qcurve"/>
      <point x="235" y="-179"/>
      <point x="291" y="-161"/>
      <point x="341" y="-129"/>
      <point x="380" y="-84"/>
    </contour>
    <contour>
      <point x="291" y="514" type="qcurve"/>
      <point x="297" y="514"/>
      <point x="308" y="504"/>
      <point x="308" y="496" type="qcurve"/>
      <point x="308" y="486"/>
      <point x="294" y="474"/>
      <point x="286" y="474" type="qcurve"/>
      <point x="279" y="474"/>
      <point x="268" y="484"/>
      <point x="268" y="492" type="qcurve"/>
      <point x="268" y="501"/>
      <point x="283" y="514"/>
    </contour>
  </outline>
</glyph>
<glyph name="Acircumflex" format="2">
  <advance width="718"/>
  <unicode hex="00C2"/>
  <outline>
    <contour>
      <point x="-29" y="14" type="line"/>
      <point x="-31" y="0" type="line"/>
      <point x="143" y="0" type="line"/>
      <point x="145" y="14" type="line"/>
      <point x="58" y="14" type="line"/>
      <point x="215" y="318" type="line"/>
      <point x="515" y="318" type="line"/>
      <point x="597" y="14" type="line"/>
      <point x="515" y="14" type="line"/>
      <point x="513" y="0" type="line"/>
      <point x="687" y="0" type="line"/>
      <point x="689" y="14" type="line"/>
      <point x="612" y="14" type="line"/>
      <point x="416" y="732" type="line"/>
      <point x="43" y="14" type="line"/>
    </contour>
    <contour>
      <point x="400" y="675" type="line"/>
      <point x="401" y="680"/>
      <point x="404" y="684" type="qcurve"/>
      <point x="406" y="688"/>
      <point x="410" y="697"/>
      <point x="412" y="700" type="qcurve"/>
      <point x="413" y="697"/>
      <point x="415" y="688"/>
      <point x="416" y="684" type="qcurve"/>
      <point x="417" y="680"/>
      <point x="418" y="675" type="qcurve"/>
      <point x="511" y="332" type="line"/>
      <point x="222" y="332" type="line"/>
    </contour>
    <contour>
      <point x="430" y="853" type="line"/>
      <point x="535" y="732" type="line"/>
      <point x="519" y="732" type="line"/>
      <point x="427" y="826" type="line"/>
      <point x="311" y="732" type="line"/>
      <point x="295" y="732" type="line"/>
    </contour>
  </outline>
</glyph>
<glyph name="Atilde" format="2">
  <advance width="718"/>
  <unicode hex="00C3"/>
  <outline>
    <contour>
      <point x="-29" y="14" type="line"/>
      <point x="-31" y="0" type="line"/>
      <point x="143" y="0" type="line"/>
      <point x="145" y="14" type="line"/>
      <point x="58" y="14" type="line"/>
      <point x="215" y="318" type="line"/>
      <point x="515" y="318" type="line"/>
      <point x="597" y="14" type="line"/>
      <point x="515" y="14" type="line"/>
      <point x="513" y="0" type="line"/>
      <point x="687" y="0" type="line"/>
      <point x="689" y="14" type="line"/>
      <point x="612" y="14" type="line"/>
      <point x="416" y="732" type="line"/>
      <point x="43" y="14" type="line"/>
    </contour>
    <contour>
      <point x="400" y="675" type="line"/>
      <point x="401" y="680"/>
      <point x="404" y="684" type="qcurve"/>
      <point x="406" y="688"/>
      <point x="410" y="697"/>
      <point x="412" y="700" type="qcurve"/>
      <point x="413" y="697"/>
      <point x="415" y="688"/>
      <point x="416" y="684" type="qcurve"/>
      <point x="417" y="680"/>
      <point x="418" y="675" type="qcurve"/>
      <point x="511" y="332" type="line"/>
      <point x="222" y="332" type="line"/>
    </contour>
    <contour>
      <point x="412" y="777" type="qcurve"/>
      <point x="398" y="795"/>
      <point x="376" y="807"/>
      <point x="362" y="807" type="qcurve"/>
      <point x="354" y="807"/>
      <point x="332" y="802"/>
      <point x="311" y="790"/>
      <point x="293" y="769"/>
      <point x="289" y="752" type="qcurve"/>
      <point x="276" y="754" type="line"/>
      <point x="283" y="791"/>
      <point x="338" y="821"/>
      <point x="366" y="821" type="qcurve"/>
      <point x="386" y="821"/>
      <point x="416" y="800"/>
      <point x="430" y="783" type="qcurve"/>
      <point x="444" y="765"/>
      <point x="467" y="753"/>
      <point x="481" y="753" type="qcurve"/>
      <point x="489" y="753"/>
      <point x="511" y="758"/>
      <point x="532" y="770"/>
      <point x="550" y="791"/>
      <point x="554" y="808" type="qcurve"/>
      <point x="566" y="806" type="line"/>
      <point x="559" y="769"/>
      <point x="504" y="739"/>
      <point x="476" y="739" type="qcurve"/>
      <point x="456" y="739"/>
      <point x="426" y="760"/>
    </contour>
  </outline>
</glyph>
<glyph name="Adieresis" format="2">
  <advance width="719"/>
  <unicode hex="00C4"/>
  <outline>
    <contour>
      <point x="-29" y="14" type="line"/>
      <point x="-31" y="0" type="line"/>
      <point x="143" y="0" type="line"/>
      <point x="145" y="14" type="line"/>
      <point x="58" y="14" type="line"/>
      <point x="215" y="318" type="line"/>
      <point x="515" y="318" type="line"/>
      <point x="597" y="14" type="line"/>
      <point x="515" y="14" type="line"/>
      <point x="513" y="0" type="line"/>
      <point x="687" y="0" type="line"/>
      <point x="689" y="14" type="line"/>
      <point x="612" y="14" type="line"/>
      <point x="416" y="732" type="line"/>
      <point x="43" y="14" type="line"/>
    </contour>
    <contour>
      <point x="400" y="675" type="line"/>
      <point x="401" y="680"/>
      <point x="404" y="684" type="qcurve"/>
      <point x="406" y="688"/>
      <point x="410" y="697"/>
      <point x="412" y="700" type="qcurve"/>
      <point x="413" y="697"/>
      <point x="415" y="688"/>
      <point x="416" y="684" type="qcurve"/>
      <point x="417" y="680"/>
      <point x="418" y="675" type="qcurve"/>
      <point x="511" y="332" type="line"/>
      <point x="222" y="332" type="line"/>
    </contour>
    <contour>
      <point x="319" y="788" type="qcurve"/>
      <point x="319" y="797"/>
      <point x="333" y="810"/>
      <point x="342" y="810" type="qcurve"/>
      <point x="350" y="810"/>
      <point x="360" y="800"/>
      <point x="360" y="792" type="qcurve"/>
      <point x="360" y="783"/>
      <point x="346" y="770"/>
      <point x="337" y="770" type="qcurve"/>
      <point x="329" y="770"/>
      <point x="319" y="780"/>
    </contour>
    <contour>
      <point x="484" y="788" type="qcurve"/>
      <point x="484" y="797"/>
      <point x="498" y="810"/>
      <point x="507" y="810" type="qcurve"/>
      <point x="515" y="810"/>
      <point x="525" y="800"/>
      <point x="525" y="792" type="qcurve"/>
      <point x="525" y="783"/>
      <point x="511" y="770"/>
      <point x="502" y="770" type="qcurve"/>
      <point x="494" y="770"/>
      <point x="484" y="780"/>
    </contour>
  </outline>
</glyph>
<glyph name="Ecircumflex" format="2">
  <advance width="623"/>
  <unicode hex="00CA"/>
  <outline>
    <contour>
      <point x="582" y="612" type="line"/>
      <point x="591" y="686" type="line"/>
      <point x="204" y="686" type="line"/>
      <point x="164" y="360" type="line"/>
      <point x="526" y="360" type="line"/>
      <point x="524" y="346" type="line"/>
      <point x="162" y="346" type="line"/>
      <point x="122" y="14" type="line"/>
      <point x="522" y="14" type="line"/>
      <point x="532" y="89" type="line"/>
      <point x="546" y="89" type="line"/>
      <point x="536" y="14" type="line"/>
      <point x="537" y="14" type="line"/>
      <point x="535" y="0" type="line"/>
      <point x="30" y="0" type="line"/>
      <point x="32" y="14" type="line"/>
      <point x="107" y="14" type="line"/>
      <point x="190" y="686" type="line"/>
      <point x="114" y="686" type="line"/>
      <point x="116" y="700" type="line"/>
      <point x="593" y="700" type="line"/>
      <point x="593" y="701" type="line"/>
      <point x="607" y="701" type="line"/>
      <point x="607" y="700" type="line"/>
      <point x="605" y="686" type="line"/>
      <point x="596" y="612" type="line"/>
    </contour>
    <contour>
      <point x="408" y="856" type="line"/>
      <point x="513" y="735" type="line"/>
      <point x="497" y="735" type="line"/>
      <point x="405" y="829" type="line"/>
      <point x="289" y="735" type="line"/>
      <point x="273" y="735" type="line"/>
    </contour>
  </outline>
</glyph>
<glyph name="Iacute" format="2">
  <advance width="293"/>
  <unicode hex="00CD"/>
  <outline>
    <contour>
      <point x="290" y="700" type="line"/>
      <point x="288" y="686" type="line"/>
      <point x="205" y="686" type="line"/>
      <point x="122" y="14" type="line"/>
      <point x="206" y="14" type="line"/>
      <point x="204" y="0" type="line"/>
      <point x="30" y="0" type="line"/>
      <point x="32" y="14" type="line"/>
      <point x="108" y="14" type="line"/>
      <point x="191" y="686" type="line"/>
      <point x="114" y="686" type="line"/>
      <point x="116" y="700" type="line"/>
    </contour>
    <contour>
      <point x="156" y="735" type="line"/>
      <point x="262" y="868" type="line"/>
      <point x="278" y="868" type="line"/>
      <point x="172" y="735" type="line"/>
    </contour>
  </outline>
</glyph>
<glyph name="Icircumflex" format="2">
  <advance width="293"/>
  <unicode hex="00CE"/>
  <outline>
    <contour>
      <point x="290" y="700" type="line"/>
      <point x="288" y="686" type="line"/>
      <point x="205" y="686" type="line"/>
      <point x="122" y="14" type="line"/>
      <point x="206" y="14" type="line"/>
      <point x="204" y="0" type="line"/>
      <point x="30" y="0" type="line"/>
      <point x="32" y="14" type="line"/>
      <point x="108" y="14" type="line"/>
      <point x="191" y="686" type="line"/>
      <point x="114" y="686" type="line"/>
      <point x="116" y="700" type="line"/>
    </contour>
    <contour>
      <point x="219" y="856" type="line"/>
      <point x="324" y="735" type="line"/>
      <point x="308" y="735" type="line"/>
      <point x="216" y="829" type="line"/>
      <point x="100" y="735" type="line"/>
      <point x="84" y="735" type="line"/>
    </contour>
  </outline>
</glyph>
<glyph name="Idieresis" format="2">
  <advance width="293"/>
  <unicode hex="00CF"/>
  <outline>
    <contour>
      <point x="290" y="700" type="line"/>
      <point x="288" y="686" type="line"/>
      <point x="205" y="686" type="line"/>
      <point x="122" y="14" type="line"/>
      <point x="206" y="14" type="line"/>
      <point x="204" y="0" type="line"/>
      <point x="30" y="0" type="line"/>
      <point x="32" y="14" type="line"/>
      <point x="108" y="14" type="line"/>
      <point x="191" y="686" type="line"/>
      <point x="114" y="686" type="line"/>
      <point x="116" y="700" type="line"/>
    </contour>
    <contour>
      <point x="105" y="754" type="qcurve"/>
      <point x="105" y="763"/>
      <point x="119" y="776"/>
      <point x="128" y="776" type="qcurve"/>
      <point x="136" y="776"/>
      <point x="146" y="766"/>
      <point x="146" y="758" type="qcurve"/>
      <point x="146" y="749"/>
      <point x="132" y="736"/>
      <point x="123" y="736" type="qcurve"/>
      <point x="115" y="736"/>
      <point x="105" y="746"/>
    </contour>
    <contour>
      <point x="270" y="754" type="qcurve"/>
      <point x="270" y="763"/>
      <point x="284" y="776"/>
      <point x="293" y="776" type="qcurve"/>
      <point x="301" y="776"/>
      <point x="311" y="766"/>
      <point x="311" y="758" type="qcurve"/>
      <point x="311" y="749"/>
      <point x="297" y="736"/>
      <point x="288" y="736" type="qcurve"/>
      <point x="280" y="736"/>
      <point x="270" y="746"/>
    </contour>
  </outline>
</glyph>
<glyph name="Eth" format="2">
  <advance width="734"/>
  <unicode hex="00D0"/>
  <outline>
    <contour>
      <point x="95" y="360" type="line"/>
      <point x="153" y="360" type="line"/>
      <point x="193" y="686" type="line"/>
      <point x="117" y="686" type="line"/>
      <point x="119" y="700" type="line"/>
      <point x="338" y="700" type="line"/>
      <point x="434" y="700"/>
      <point x="566" y="644"/>
      <point x="648" y="554"/>
      <point x="684" y="442"/>
      <point x="684" y="387" type="qcurve"/>
      <point x="684" y="300"/>
      <point x="618" y="157"/>
      <point x="507" y="55"/>
      <point x="364" y="0"/>
      <point x="286" y="0" type="qcurve"/>
      <point x="33" y="0" type="line"/>
      <point x="35" y="14" type="line"/>
      <point x="110" y="14" type="line"/>
      <point x="151" y="346" type="line"/>
      <point x="93" y="346" type="line"/>
    </contour>
    <contour>
      <point x="294" y="14" type="line"/>
      <point x="367" y="14"/>
      <point x="503" y="67"/>
      <point x="608" y="164"/>
      <point x="671" y="301"/>
      <point x="671" y="385" type="qcurve"/>
      <point x="671" y="438"/>
      <point x="637" y="545"/>
      <point x="559" y="631"/>
      <point x="435" y="685"/>
      <point x="345" y="685" type="qcurve"/>
      <point x="207" y="685" type="line"/>
      <point x="167" y="360" type="line"/>
      <point x="376" y="360" type="line"/>
      <point x="374" y="346" type="line"/>
      <point x="165" y="346" type="line"/>
      <point x="125" y="14" type="line"/>
    </contour>
  </outline>
</glyph>
<glyph name="Ntilde" format="2">
  <advance width="836"/>
  <unicode hex="00D1"/>
  <outline>
    <contour>
      <point x="204" y="14" type="line"/>
      <point x="202" y="0" type="line"/>
      <point x="28" y="0" type="line"/>
      <point x="30" y="14" type="line"/>
      <point x="106" y="14" type="line"/>
      <point x="189" y="686" type="line"/>
      <point x="112" y="686" type="line"/>
      <point x="114" y="700" type="line"/>
      <point x="216" y="700" type="line"/>
      <point x="277" y="609"/>
      <point x="384" y="442"/>
      <point x="487" y="279"/>
      <point x="591" y="116"/>
      <point x="649" y="28" type="qcurve"/>
      <point x="665" y="2" type="line"/>
      <point x="666" y="10"/>
      <point x="666" y="26"/>
      <point x="666" y="34" type="qcurve"/>
      <point x="746" y="687" type="line"/>
      <point x="661" y="687" type="line"/>
      <point x="663" y="701" type="line"/>
      <point x="837" y="701" type="line"/>
      <point x="835" y="687" type="line"/>
      <point x="760" y="687" type="line"/>
      <point x="672" y="-32" type="line"/>
      <point x="551" y="147"/>
      <point x="326" y="496"/>
      <point x="217" y="670" type="qcurve"/>
      <point x="201" y="696" type="line"/>
      <point x="201" y="664" type="line"/>
      <point x="120" y="14" type="line"/>
    </contour>
    <contour>
      <point x="487" y="776" type="qcurve"/>
      <point x="473" y="794"/>
      <point x="451" y="806"/>
      <point x="437" y="806" type="qcurve"/>
      <point x="429" y="806"/>
      <point x="407" y="801"/>
      <point x="386" y="789"/>
      <point x="368" y="768"/>
      <point x="364" y="751" type="qcurve"/>
      <point x="351" y="753" type="line"/>
      <point x="358" y="790"/>
      <point x="413" y="820"/>
      <point x="441" y="820" type="qcurve"/>
      <point x="461" y="820"/>
      <point x="491" y="799"/>
      <point x="505" y="782" type="qcurve"/>
      <point x="519" y="764"/>
      <point x="542" y="752"/>
      <point x="556" y="752" type="qcurve"/>
      <point x="564" y="752"/>
      <point x="586" y="757"/>
      <point x="607" y="769"/>
      <point x="625" y="790"/>
      <point x="629" y="807" type="qcurve"/>
      <point x="641" y="805" type="line"/>
      <point x="634" y="768"/>
      <point x="579" y="738"/>
      <point x="551" y="738" type="qcurve"/>
      <point x="531" y="738"/>
      <point x="501" y="759"/>
    </contour>
  </outline>
</glyph>
<glyph name="Ocircumflex" format="2">
  <advance width="837"/>
  <unicode hex="00D4"/>
  <outline>
    <contour>
      <point x="70" y="349" type="qcurve"/>
      <point x="79" y="423"/>
      <point x="151" y="554"/>
      <point x="260" y="651"/>
      <point x="397" y="708"/>
      <point x="471" y="708" type="qcurve"/>
      <point x="540" y="708"/>
      <point x="656" y="658"/>
      <point x="741" y="570"/>
      <point x="789" y="452"/>
      <point x="789" y="385" type="qcurve"/>
      <point x="789" y="305"/>
      <point x="722" y="162"/>
      <point x="610" y="55"/>
      <point x="463" y="-8"/>
      <point x="383" y="-8" type="qcurve"/>
      <point x="309" y="-8"/>
      <point x="186" y="48"/>
      <point x="101" y="145"/>
      <point x="61" y="275"/>
    </contour>
    <contour>
      <point x="84" y="348" type="qcurve"/>
      <point x="75" y="277"/>
      <point x="114" y="153"/>
      <point x="195" y="60"/>
      <point x="312" y="6"/>
      <point x="382" y="6" type="qcurve"/>
      <point x="458" y="6"/>
      <point x="600" y="66"/>
      <point x="709" y="169"/>
      <point x="774" y="306"/>
      <point x="774" y="383" type="qcurve"/>
      <point x="774" y="447"/>
      <point x="728" y="561"/>
      <point x="646" y="645"/>
      <point x="535" y="694"/>
      <point x="469" y="694" type="qcurve"/>
      <point x="398" y="694"/>
      <point x="267" y="639"/>
      <point x="162" y="545"/>
      <point x="93" y="419"/>
    </contour>
    <contour>
      <point x="507" y="925" type="line"/>
      <point x="605" y="744" type="line"/>
      <point x="589" y="744" type="line"/>
      <point x="567" y="782"/>
      <point x="526" y="860"/>
      <point x="504" y="898" type="qcurve"/>
      <point x="381" y="744" type="line"/>
      <point x="365" y="744" type="line"/>
    </contour>
  </outline>
</glyph>
<glyph name="agrave" format="2">
  <advance width="528"/>
  <unicode hex="00E0"/>
  <outline>
    <contour>
      <point x="402" y="14" type="line"/>
      <point x="482" y="14" type="line"/>
      <point x="480" y="0" type="line"/>
      <point x="386" y="0" type="line"/>
      <point x="393" y="54" type="line"/>
      <point x="395" y="70"/>
      <point x="399" y="101"/>
      <point x="401" y="117" type="qcurve"/>
      <point x="387" y="90"/>
      <point x="346" y="45"/>
      <point x="294" y="12"/>
      <point x="235" y="-6"/>
      <point x="204" y="-6" type="qcurve"/>
      <point x="167" y="-6"/>
      <point x="104" y="21"/>
      <point x="59" y="68"/>
      <point x="33" y="131"/>
      <point x="33" y="168" type="qcurve"/>
      <point x="33" y="212"/>
      <point x="69" y="290"/>
      <point x="129" y="349"/>
      <point x="208" y="383"/>
      <point x="252" y="383" type="qcurve"/>
      <point x="314" y="383"/>
      <point x="403" y="314"/>
      <point x="418" y="260" type="qcurve"/>
      <point x="422" y="289"/>
      <point x="431" y="346"/>
      <point x="436" y="375" type="qcurve"/>
      <point x="446" y="375" type="line"/>
      <point x="401" y="13" type="line"/>
    </contour>
    <contour>
      <point x="46" y="170" type="qcurve"/>
      <point x="46" y="136"/>
      <point x="70" y="77"/>
      <point x="112" y="33"/>
      <point x="170" y="8"/>
      <point x="205" y="8" type="qcurve"/>
      <point x="245" y="8"/>
      <point x="319" y="39"/>
      <point x="376" y="93"/>
      <point x="409" y="165"/>
      <point x="409" y="206" type="qcurve"/>
      <point x="409" y="240"/>
      <point x="385" y="300"/>
      <point x="342" y="344"/>
      <point x="283" y="369"/>
      <point x="249" y="369" type="qcurve"/>
      <point x="208" y="369"/>
      <point x="135" y="337"/>
      <point x="79" y="283"/>
      <point x="46" y="210"/>
    </contour>
    <contour>
      <point x="246" y="612" type="line"/>
      <point x="320" y="479" type="line"/>
      <point x="304" y="479" type="line"/>
      <point x="230" y="612" type="line"/>
    </contour>
  </outline>
</glyph>
<glyph name="atilde" format="2">
  <advance width="528"/>
  <unicode hex="00E3"/>
  <outline>
    <contour>
      <point x="402" y="14" type="line"/>
      <point x="482" y="14" type="line"/>
      <point x="480" y="0" type="line"/>
      <point x="386" y="0" type="line"/>
      <point x="393" y="54" type="line"/>
      <point x="395" y="70"/>
      <point x="399" y="101"/>
      <point x="401" y="117" type="qcurve"/>
      <point x="387" y="90"/>
      <point x="346" y="45"/>
      <point x="294" y="12"/>
      <point x="235" y="-6"/>
      <point x="204" y="-6" type="qcurve"/>
      <point x="167" y="-6"/>
      <point x="104" y="21"/>
      <point x="59" y="68"/>
      <point x="33" y="131"/>
      <point x="33" y="168" type="qcurve"/>
      <point x="33" y="212"/>
      <point x="69" y="290"/>
      <point x="129" y="349"/>
      <point x="208" y="383"/>
      <point x="252" y="383" type="qcurve"/>
      <point x="314" y="383"/>
      <point x="403" y="314"/>
      <point x="418" y="260" type="qcurve"/>
      <point x="422" y="289"/>
      <point x="431" y="346"/>
      <point x="436" y="375" type="qcurve"/>
      <point x="446" y="375" type="line"/>
      <point x="401" y="13" type="line"/>
    </contour>
    <contour>
      <point x="46" y="170" type="qcurve"/>
      <point x="46" y="136"/>
      <point x="70" y="77"/>
      <point x="112" y="33"/>
      <point x="170" y="8"/>
      <point x="205" y="8" type="qcurve"/>
      <point x="245" y="8"/>
      <point x="319" y="39"/>
      <point x="376" y="93"/>
      <point x="409" y="165"/>
      <point x="409" y="206" type="qcurve"/>
      <point x="409" y="240"/>
      <point x="385" y="300"/>
      <point x="342" y="344"/>
      <point x="283" y="369"/>
      <point x="249" y="369" type="qcurve"/>
      <point x="208" y="369"/>
      <point x="135" y="337"/>
      <point x="79" y="283"/>
      <point x="46" y="210"/>
    </contour>
    <contour>
      <point x="295" y="497" type="qcurve"/>
      <point x="281" y="515"/>
      <point x="259" y="527"/>
      <point x="245" y="527" type="qcurve"/>
      <point x="237" y="527"/>
      <point x="215" y="522"/>
      <point x="194" y="510"/>
      <point x="176" y="489"/>
      <point x="172" y="472" type="qcurve"/>
      <point x="159" y="474" type="line"/>
      <point x="166" y="511"/>
      <point x="221" y="541"/>
      <point x="249" y="541" type="qcurve"/>
      <point x="269" y="541"/>
      <point x="299" y="520"/>
      <point x="313" y="503" type="qcurve"/>
      <point x="327" y="485"/>
      <point x="350" y="473"/>
      <point x="364" y="473" type="qcurve"/>
      <point x="372" y="473"/>
      <point x="394" y="478"/>
      <point x="415" y="490"/>
      <point x="433" y="511"/>
      <point x="437" y="528" type="qcurve"/>
      <point x="449" y="526" type="line"/>
      <point x="442" y="489"/>
      <point x="387" y="459"/>
      <point x="359" y="459" type="qcurve"/>
      <point x="339" y="459"/>
      <point x="309" y="480"/>
    </contour>
  </outline>
</glyph>
<glyph name="adieresis" format="2">
  <advance width="528"/>
  <unicode hex="00E4"/>
  <outline>
    <contour>
      <point x="402" y="14" type="line"/>
      <point x="482" y="14" type="line"/>
      <point x="480" y="0" type="line"/>
      <point x="386" y="0" type="line"/>
      <point x="393" y="54" type="line"/>
      <point x="395" y="70"/>
      <point x="399" y="101"/>
      <point x="401" y="117" type="qcurve"/>
      <point x="387" y="90"/>
      <point x="346" y="45"/>
      <point x="294" y="12"/>
      <point x="235" y="-6"/>
      <point x="204" y="-6" type="qcurve"/>
      <point x="167" y="-6"/>
      <point x="104" y="21"/>
      <point x="59" y="68"/>
      <point x="33" y="131"/>
      <point x="33" y="168" type="qcurve"/>
      <point x="33" y="212"/>
      <point x="69" y="290"/>
      <point x="129" y="349"/>
      <point x="208" y="383"/>
      <point x="252" y="383" type="qcurve"/>
      <point x="314" y="383"/>
      <point x="403" y="314"/>
      <point x="418" y="260" type="qcurve"/>
      <point x="422" y="289"/>
      <point x="431" y="346"/>
      <point x="436" y="375" type="qcurve"/>
      <point x="446" y="375" type="line"/>
      <point x="401" y="13" type="line"/>
    </contour>
    <contour>
      <point x="46" y="170" type="qcurve"/>
      <point x="46" y="136"/>
      <point x="70" y="77"/>
      <point x="112" y="33"/>
      <point x="170" y="8"/>
      <point x="205" y="8" type="qcurve"/>
      <point x="245" y="8"/>
      <point x="319" y="39"/>
      <point x="376" y="93"/>
      <point x="409" y="165"/>
      <point x="409" y="206" type="qcurve"/>
      <point x="409" y="240"/>
      <point x="385" y="300"/>
      <point x="342" y="344"/>
      <point x="283" y="369"/>
      <point x="249" y="369" type="qcurve"/>
      <point x="208" y="369"/>
      <point x="135" y="337"/>
      <point x="79" y="283"/>
      <point x="46" y="210"/>
    </contour>
    <contour>
      <point x="178" y="498" type="qcurve"/>
      <point x="178" y="507"/>
      <point x="192" y="520"/>
      <point x="201" y="520" type="qcurve"/>
      <point x="209" y="520"/>
      <point x="219" y="510"/>
      <point x="219" y="502" type="qcurve"/>
      <point x="219" y="493"/>
      <point x="205" y="480"/>
      <point x="196" y="480" type="qcurve"/>
      <point x="188" y="480"/>
      <point x="178" y="490"/>
    </contour>
    <contour>
      <point x="343" y="498" type="qcurve"/>
      <point x="343" y="507"/>
      <point x="357" y="520"/>
      <point x="366" y="520" type="qcurve"/>
      <point x="374" y="520"/>
      <point x="384" y="510"/>
      <point x="384" y="502" type="qcurve"/>
      <point x="384" y="493"/>
      <point x="370" y="480"/>
      <point x="361" y="480" type="qcurve"/>
      <point x="353" y="480"/>
      <point x="343" y="490"/>
    </contour>
  </outline>
</glyph>
<glyph name="ccedilla" format="2">
  <advance width="393"/>
  <unicode hex="00E7"/>
  <outline>
    <contour>
      <point x="324" y="47" type="qcurve"/>
      <point x="333" y="37" type="line"/>
      <point x="305" y="17"/>
      <point x="240" y="-6"/>
      <point x="205" y="-6" type="qcurve"/>
      <point x="202" y="-6" type="line"/>
      <point x="200" y="-19"/>
      <point x="205" y="-37"/>
      <point x="216" y="-49"/>
      <point x="230" y="-57"/>
      <point x="236" y="-61" type="qcurve"/>
      <point x="255" y="-75"/>
      <point x="270" y="-109"/>
      <point x="270" y="-122" type="qcurve"/>
      <point x="270" y="-148"/>
      <point x="254" y="-185"/>
      <point x="227" y="-211"/>
      <point x="192" y="-223"/>
      <point x="174" y="-223" type="qcurve"/>
      <point x="148" y="-223"/>
      <point x="106" y="-194"/>
      <point x="100" y="-165" type="qcurve"/>
      <point x="116" y="-161" type="line"/>
      <point x="119" y="-182"/>
      <point x="151" y="-209"/>
      <point x="176" y="-209" type="qcurve"/>
      <point x="209" y="-209"/>
      <point x="255" y="-163"/>
      <point x="255" y="-128" type="qcurve"/>
      <point x="255" y="-104"/>
      <point x="232" y="-77"/>
      <point x="205" y="-56"/>
      <point x="184" y="-35"/>
      <point x="186" y="-16" type="qcurve"/>
      <point x="187" y="-5" type="line"/>
      <point x="153" y="-2"/>
      <point x="96" y="27"/>
      <point x="56" y="73"/>
      <point x="33" y="133"/>
      <point x="33" y="168" type="qcurve"/>
      <point x="33" y="212"/>
      <point x="69" y="290"/>
      <point x="129" y="349"/>
      <point x="208" y="383"/>
      <point x="252" y="383" type="qcurve"/>
      <point x="287" y="383"/>
      <point x="347" y="360"/>
      <point x="370" y="340" type="qcurve"/>
      <point x="368" y="337"/>
      <point x="361" y="332"/>
      <point x="359" y="329" type="qcurve"/>
      <point x="338" y="348"/>
      <point x="283" y="369"/>
      <point x="251" y="369" type="qcurve"/>
      <point x="210" y="369"/>
      <point x="137" y="337"/>
      <point x="80" y="283"/>
      <point x="47" y="210"/>
      <point x="47" y="170" type="qcurve"/>
      <point x="47" y="136"/>
      <point x="71" y="77"/>
      <point x="113" y="33"/>
      <point x="171" y="8"/>
      <point x="206" y="8" type="qcurve"/>
      <point x="238" y="8"/>
      <point x="298" y="29"/>
    </contour>
  </outline>
</glyph>
<glyph name="eacute" format="2">
  <advance width="435"/>
  <unicode hex="00E9"/>
  <outline>
    <contour>
      <point x="345" y="46" type="line"/>
      <point x="316" y="22"/>
      <point x="244" y="-6"/>
      <point x="205" y="-6" type="qcurve"/>
      <point x="167" y="-6"/>
      <point x="104" y="21"/>
      <point x="59" y="68"/>
      <point x="33" y="131"/>
      <point x="33" y="168" type="qcurve"/>
      <point x="33" y="212"/>
      <point x="69" y="290"/>
      <point x="130" y="349"/>
      <point x="209" y="384"/>
      <point x="253" y="384" type="qcurve"/>
      <point x="315" y="384"/>
      <point x="391" y="313"/>
      <point x="406" y="259" type="qcurve"/>
      <point x="367" y="244"/>
      <point x="276" y="209"/>
      <point x="183" y="173"/>
      <point x="92" y="138"/>
      <point x="52" y="122" type="qcurve"/>
      <point x="66" y="71"/>
      <point x="148" y="8"/>
      <point x="206" y="8" type="qcurve"/>
      <point x="242" y="8"/>
      <point x="309" y="33"/>
      <point x="335" y="56" type="qcurve"/>
    </contour>
    <contour>
      <point x="388" y="266" type="qcurve"/>
      <point x="372" y="311"/>
      <point x="305" y="369"/>
      <point x="251" y="369" type="qcurve"/>
      <point x="210" y="369"/>
      <point x="137" y="337"/>
      <point x="80" y="282"/>
      <point x="47" y="208"/>
      <point x="47" y="166" type="qcurve"/>
      <point x="47" y="159"/>
      <point x="47" y="142"/>
      <point x="49" y="135" type="qcurve"/>
      <point x="88" y="150"/>
      <point x="174" y="184"/>
      <point x="262" y="217"/>
      <point x="349" y="251"/>
    </contour>
    <contour>
      <point x="267" y="479" type="line"/>
      <point x="373" y="612" type="line"/>
      <point x="389" y="612" type="line"/>
      <point x="283" y="479" type="line"/>
    </contour>
  </outline>
</glyph>
<glyph name="igrave" format="2">
  <advance width="214"/>
  <unicode hex="00EC"/>
  <outline>
    <contour>
      <point x="90" y="37" type="line"/>
      <point x="87" y="14" type="line"/>
      <point x="168" y="14" type="line"/>
      <point x="166" y="0" type="line"/>
      <point x="-9" y="0" type="line"/>
      <point x="-7" y="14" type="line"/>
      <point x="72" y="14" type="line"/>
      <point x="115" y="361" type="line"/>
      <point x="35" y="361" type="line"/>
      <point x="37" y="375" type="line"/>
      <point x="131" y="375" type="line"/>
      <point x="89" y="37" type="line"/>
    </contour>
    <contour>
      <point x="105" y="612" type="line"/>
      <point x="179" y="479" type="line"/>
      <point x="163" y="479" type="line"/>
      <point x="89" y="612" type="line"/>
    </contour>
  </outline>
</glyph>
<glyph name="idieresis" format="2">
  <advance width="214"/>
  <unicode hex="00EF"/>
  <outline>
    <contour>
      <point x="90" y="37" type="line"/>
      <point x="87" y="14" type="line"/>
      <point x="168" y="14" type="line"/>
      <point x="166" y="0" type="line"/>
      <point x="-9" y="0" type="line"/>
      <point x="-7" y="14" type="line"/>
      <point x="72" y="14" type="line"/>
      <point x="115" y="361" type="line"/>
      <point x="35" y="361" type="line"/>
      <point x="37" y="375" type="line"/>
      <point x="131" y="375" type="line"/>
      <point x="89" y="37" type="line"/>
    </contour>
    <contour>
      <point x="36" y="498" type="qcurve"/>
      <point x="36" y="507"/>
      <point x="50" y="520"/>
      <point x="59" y="520" type="qcurve"/>
      <point x="67" y="520"/>
      <point x="77" y="510"/>
      <point x="77" y="502" type="qcurve"/>
      <point x="77" y="493"/>
      <point x="63" y="480"/>
      <point x="54" y="480" type="qcurve"/>
      <point x="46" y="480"/>
      <point x="36" y="490"/>
    </contour>
    <contour>
      <point x="201" y="498" type="qcurve"/>
      <point x="201" y="507"/>
      <point x="215" y="520"/>
      <point x="224" y="520" type="qcurve"/>
      <point x="232" y="520"/>
      <point x="242" y="510"/>
      <point x="242" y="502" type="qcurve"/>
      <point x="242" y="493"/>
      <point x="228" y="480"/>
      <point x="219" y="480" type="qcurve"/>
      <point x="211" y="480"/>
      <point x="201" y="490"/>
    </contour>
  </outline>
</glyph>
<glyph name="ocircumflex" format="2">
  <advance width="478"/>
  <unicode hex="00F4"/>
  <outline>
    <contour>
      <point x="34" y="188" type="qcurve"/>
      <point x="39" y="228"/>
      <point x="78" y="300"/>
      <point x="137" y="353"/>
      <point x="211" y="384"/>
      <point x="252" y="384" type="qcurve"/>
      <point x="289" y="384"/>
      <point x="353" y="357"/>
      <point x="400" y="309"/>
      <point x="426" y="245"/>
      <point x="426" y="208" type="qcurve"/>
      <point x="426" y="164"/>
      <point x="389" y="86"/>
      <point x="328" y="28"/>
      <point x="247" y="-6"/>
      <point x="204" y="-6" type="qcurve"/>
      <point x="163" y="-6"/>
      <point x="97" y="24"/>
      <point x="51" y="77"/>
      <point x="29" y="147"/>
    </contour>
    <contour>
      <point x="48" y="188" type="qcurve"/>
      <point x="43" y="150"/>
      <point x="64" y="85"/>
      <point x="106" y="36"/>
      <point x="168" y="8"/>
      <point x="206" y="8" type="qcurve"/>
      <point x="246" y="8"/>
      <point x="320" y="39"/>
      <point x="377" y="93"/>
      <point x="410" y="165"/>
      <point x="410" y="206" type="qcurve"/>
      <point x="410" y="240"/>
      <point x="386" y="300"/>
      <point x="343" y="344"/>
      <point x="284" y="369"/>
      <point x="250" y="369" type="qcurve"/>
      <point x="212" y="369"/>
      <point x="143" y="341"/>
      <point x="89" y="291"/>
      <point x="52" y="225"/>
    </contour>
    <contour>
      <point x="281" y="600" type="line"/>
      <point x="386" y="479" type="line"/>
      <point x="370" y="479" type="line"/>
      <point x="278" y="573" type="line"/>
      <point x="162" y="479" type="line"/>
      <point x="146" y="479" type="line"/>
    </contour>
  </outline>
</glyph>
<glyph name="otilde" format="2">
  <advance width="478"/>
  <unicode hex="00F5"/>
  <outline>
    <contour>
      <point x="34" y="188" type="qcurve"/>
      <point x="39" y="228"/>
      <point x="78" y="300"/>
      <point x="137" y="353"/>
      <point x="211" y="384"/>
      <point x="252" y="384" type="qcurve"/>
      <point x="289" y="384"/>
      <point x="353" y="357"/>
      <point x="400" y="309"/>
      <point x="426" y="245"/>
      <point x="426" y="208" type="qcurve"/>
      <point x="426" y="164"/>
      <point x="389" y="86"/>
      <point x="328" y="28"/>
      <point x="247" y="-6"/>
      <point x="204" y="-6" type="qcurve"/>
      <point x="163" y="-6"/>
      <point x="97" y="24"/>
      <point x="51" y="77"/>
      <point x="29" y="147"/>
    </contour>
    <contour>
      <point x="48" y="188" type="qcurve"/>
      <point x="43" y="150"/>
      <point x="64" y="85"/>
      <point x="106" y="36"/>
      <point x="168" y="8"/>
      <point x="206" y="8" type="qcurve"/>
      <point x="246" y="8"/>
      <point x="320" y="39"/>
      <point x="377" y="93"/>
      <point x="410" y="165"/>
      <point x="410" y="206" type="qcurve"/>
      <point x="410" y="240"/>
      <point x="386" y="300"/>
      <point x="343" y="344"/>
      <point x="284" y="369"/>
      <point x="250" y="369" type="qcurve"/>
      <point x="212" y="369"/>
      <point x="143" y="341"/>
      <point x="89" y="291"/>
      <point x="52" y="225"/>
    </contour>
    <contour>
      <point x="256" y="485" type="qcurve"/>
      <point x="242" y="503"/>
      <point x="220" y="515"/>
      <point x="206" y="515" type="qcurve"/>
      <point x="198" y="515"/>
      <point x="176" y="510"/>
      <point x="155" y="498"/>
      <point x="137" y="477"/>
      <point x="133" y="460" type="qcurve"/>
      <point x="120" y="462" type="line"/>
      <point x="127" y="499"/>
      <point x="182" y="529"/>
      <point x="210" y="529" type="qcurve"/>
      <point x="230" y="529"/>
      <point x="260" y="508"/>
      <point x="274" y="491" type="qcurve"/>
      <point x="288" y="473"/>
      <point x="311" y="461"/>
      <point x="325" y="461" type="qcurve"/>
      <point x="333" y="461"/>
      <point x="355" y="466"/>
      <point x="376" y="478"/>
      <point x="394" y="499"/>
      <point x="398" y="516" type="qcurve"/>
      <point x="410" y="514" type="line"/>
      <point x="403" y="477"/>
      <point x="348" y="447"/>
      <point x="320" y="447" type="qcurve"/>
      <point x="300" y="447"/>
      <point x="270" y="468"/>
    </contour>
  </outline>
</glyph>
<glyph name="odieresis" format="2">
  <advance width="478"/>
  <unicode hex="00F6"/>
  <outline>
    <contour>
      <point x="34" y="188" type="qcurve"/>
      <point x="39" y="228"/>
      <point x="78" y="300"/>
      <point x="137" y="353"/>
      <point x="211" y="384"/>
      <point x="252" y="384" type="qcurve"/>
      <point x="289" y="384"/>
      <point x="353" y="357"/>
      <point x="400" y="309"/>
      <point x="426" y="245"/>
      <point x="426" y="208" type="qcurve"/>
      <point x="426" y="164"/>
      <point x="389" y="86"/>
      <point x="328" y="28"/>
      <point x="247" y="-6"/>
      <point x="204" y="-6" type="qcurve"/>
      <point x="163" y="-6"/>
      <point x="97" y="24"/>
      <point x="51" y="77"/>
      <point x="29" y="147"/>
    </contour>
    <contour>
      <point x="48" y="188" type="qcurve"/>
      <point x="43" y="150"/>
      <point x="64" y="85"/>
      <point x="106" y="36"/>
      <point x="168" y="8"/>
      <point x="206" y="8" type="qcurve"/>
      <point x="246" y="8"/>
      <point x="320" y="39"/>
      <point x="377" y="93"/>
      <point x="410" y="165"/>
      <point x="410" y="206" type="qcurve"/>
      <point x="410" y="240"/>
      <point x="386" y="300"/>
      <point x="343" y="344"/>
      <point x="284" y="369"/>
      <point x="250" y="369" type="qcurve"/>
      <point x="212" y="369"/>
      <point x="143" y="341"/>
      <point x="89" y="291"/>
      <point x="52" y="225"/>
    </contour>
    <contour>
      <point x="333" y="498" type="qcurve"/>
      <point x="333" y="507"/>
      <point x="347" y="520"/>
      <point x="356" y="520" type="qcurve"/>
      <point x="364" y="520"/>
      <point x="374" y="510"/>
      <point x="374" y="502" type="qcurve"/>
      <point x="374" y="493"/>
      <point x="360" y="480"/>
      <point x="351" y="480" type="qcurve"/>
      <point x="343" y="480"/>
      <point x="333" y="490"/>
    </contour>
    <contour>
      <point x="168" y="498" type="qcurve"/>
      <point x="168" y="507"/>
      <point x="182" y="520"/>
      <point x="191" y="520" type="qcurve"/>
      <point x="199" y="520"/>
      <point x="209" y="510"/>
      <point x="209" y="502" type="qcurve"/>
      <point x="209" y="493"/>
      <point x="195" y="480"/>
      <point x="186" y="480" type="qcurve"/>
      <point x="178" y="480"/>
      <point x="168" y="490"/>
    </contour>
  </outline>
</glyph>
<glyph name="divide" format="2">
  <advance width="522"/>
  <unicode hex="00F7"/>
  <outline>
    <contour>
      <point x="434" y="210" type="line"/>
      <point x="74" y="210" type="line"/>
      <point x="76" y="224" type="line"/>
      <point x="436" y="224" type="line"/>
    </contour>
    <contour>
      <point x="253" y="339" type="qcurve"/>
      <point x="253" y="348"/>
      <point x="267" y="361"/>
      <point x="276" y="361" type="qcurve"/>
      <point x="284" y="361"/>
      <point x="293" y="351"/>
      <point x="293" y="343" type="qcurve"/>
      <point x="293" y="334"/>
      <point x="280" y="321"/>
      <point x="271" y="321" type="qcurve"/>
      <point x="263" y="321"/>
      <point x="253" y="331"/>
    </contour>
    <contour>
      <point x="222" y="89" type="qcurve"/>
      <point x="222" y="98"/>
      <point x="236" y="111"/>
      <point x="245" y="111" type="qcurve"/>
      <point x="253" y="111"/>
      <point x="263" y="101"/>
      <point x="263" y="93" type="qcurve"/>
      <point x="263" y="84"/>
      <point x="249" y="71"/>
      <point x="240" y="71" type="qcurve"/>
      <point x="232" y="71"/>
      <point x="222" y="81"/>
    </contour>
  </outline>
</glyph>
<glyph name="oslash" format="2">
  <advance width="477"/>
  <unicode hex="00F8"/>
  <outline>
    <contour>
      <point x="33" y="188" type="qcurve"/>
      <point x="38" y="228"/>
      <point x="77" y="300"/>
      <point x="136" y="353"/>
      <point x="210" y="384"/>
      <point x="251" y="384" type="qcurve"/>
      <point x="283" y="384"/>
      <point x="338" y="364"/>
      <point x="361" y="346" type="qcurve"/>
      <point x="389" y="375" type="line"/>
      <point x="397" y="366" type="line"/>
      <point x="370" y="338" type="line"/>
      <point x="396" y="314"/>
      <point x="425" y="246"/>
      <point x="425" y="208" type="qcurve"/>
      <point x="425" y="164"/>
      <point x="388" y="86"/>
      <point x="327" y="28"/>
      <point x="246" y="-6"/>
      <point x="203" y="-6" type="qcurve"/>
      <point x="166" y="-6"/>
      <point x="106" y="18"/>
      <point x="83" y="40" type="qcurve"/>
      <point x="72" y="29"/>
      <point x="53" y="8"/>
      <point x="45" y="0" type="qcurve"/>
      <point x="38" y="10" type="line"/>
      <point x="46" y="18"/>
      <point x="64" y="37"/>
      <point x="75" y="48" type="qcurve"/>
      <point x="51" y="74"/>
      <point x="28" y="146"/>
    </contour>
    <contour>
      <point x="93" y="50" type="line"/>
      <point x="114" y="30"/>
      <point x="171" y="8"/>
      <point x="205" y="8" type="qcurve"/>
      <point x="245" y="8"/>
      <point x="319" y="39"/>
      <point x="376" y="93"/>
      <point x="409" y="165"/>
      <point x="409" y="206" type="qcurve"/>
      <point x="409" y="242"/>
      <point x="382" y="303"/>
      <point x="359" y="326" type="qcurve"/>
    </contour>
    <contour>
      <point x="47" y="188" type="qcurve"/>
      <point x="42" y="150"/>
      <point x="63" y="83"/>
      <point x="85" y="59" type="qcurve"/>
      <point x="349" y="334" type="line"/>
      <point x="329" y="351"/>
      <point x="278" y="369"/>
      <point x="249" y="369" type="qcurve"/>
      <point x="211" y="369"/>
      <point x="142" y="341"/>
      <point x="88" y="291"/>
      <point x="51" y="225"/>
    </contour>
  </outline>
</glyph>
<glyph name="yacute" format="2">
  <advance width="470"/>
  <unicode hex="00FD"/>
  <outline>
    <contour>
      <point x="41" y="-166" type="line"/>
      <point x="107" y="-166" type="line"/>
      <point x="193" y="-10" type="line"/>
      <point x="74" y="361" type="line"/>
      <point x="19" y="361" type="line"/>
      <point x="21" y="375" type="line"/>
      <point x="159" y="375" type="line"/>
      <point x="157" y="361" type="line"/>
      <point x="89" y="361" type="line"/>
      <point x="203" y="6" type="line"/>
      <point x="403" y="361" type="line"/>
      <point x="339" y="361" type="line"/>
      <point x="341" y="375" type="line"/>
      <point x="480" y="375" type="line"/>
      <point x="478" y="361" type="line"/>
      <point x="418" y="361" type="line"/>
      <point x="121" y="-166" type="line"/>
      <point x="191" y="-166" type="line"/>
      <point x="190" y="-180" type="line"/>
      <point x="40" y="-180" type="line"/>
    </contour>
    <contour>
      <point x="244" y="479" type="line"/>
      <point x="350" y="612" type="line"/>
      <point x="366" y="612" type="line"/>
      <point x="260" y="479" type="line"/>
    </contour>
  </outline>
</glyph>
<glyph name="thorn" format="2">
  <advance width="517"/>
  <unicode hex="00FE"/>
  <outline>
    <contour>
      <point x="156" y="750" type="line"/>
      <point x="140" y="623"/>
      <point x="128" y="519" type="qcurve"/>
      <point x="123" y="475"/>
      <point x="112" y="388"/>
      <point x="103" y="317"/>
      <point x="97" y="267"/>
      <point x="96" y="260" type="qcurve"/>
      <point x="125" y="314"/>
      <point x="230" y="383"/>
      <point x="292" y="383" type="qcurve"/>
      <point x="329" y="383"/>
      <point x="393" y="356"/>
      <point x="438" y="309"/>
      <point x="464" y="245"/>
      <point x="464" y="208" type="qcurve"/>
      <point x="464" y="164"/>
      <point x="428" y="86"/>
      <point x="368" y="28"/>
      <point x="288" y="-6"/>
      <point x="244" y="-6" type="qcurve"/>
      <point x="182" y="-6"/>
      <point x="92" y="63"/>
      <point x="78" y="117" type="qcurve"/>
      <point x="76" y="101"/>
      <point x="73" y="70"/>
      <point x="71" y="54" type="qcurve"/>
      <point x="46" y="-144" type="line"/>
      <point x="47" y="-144" type="line"/>
      <point x="44" y="-167" type="line"/>
      <point x="125" y="-167" type="line"/>
      <point x="123" y="-181" type="line"/>
      <point x="-52" y="-181" type="line"/>
      <point x="-50" y="-167" type="line"/>
      <point x="29" y="-167" type="line"/>
      <point x="140" y="736" type="line"/>
      <point x="61" y="736" type="line"/>
      <point x="62" y="750" type="line"/>
    </contour>
    <contour>
      <point x="450" y="207" type="qcurve"/>
      <point x="450" y="241"/>
      <point x="426" y="300"/>
      <point x="384" y="344"/>
      <point x="325" y="369"/>
      <point x="291" y="369" type="qcurve"/>
      <point x="250" y="369"/>
      <point x="176" y="337"/>
      <point x="120" y="283"/>
      <point x="86" y="210"/>
      <point x="86" y="170" type="qcurve"/>
      <point x="86" y="136"/>
      <point x="110" y="77"/>
      <point x="153" y="33"/>
      <point x="211" y="8"/>
      <point x="246" y="8" type="qcurve"/>
      <point x="286" y="8"/>
      <point x="360" y="40"/>
      <point x="417" y="94"/>
      <point x="450" y="166"/>
    </contour>
  </outline>
</glyph>
<glyph name="ydieresis" format="2">
  <advance width="470"/>
  <unicode hex="00FF"/>
  <outline>
    <contour>
      <point x="41" y="-166" type="line"/>
      <point x="107" y="-166" type="line"/>
      <point x="193" y="-10" type="line"/>
      <point x="74" y="361" type="line"/>
      <point x="19" y="361" type="line"/>
      <point x="21" y="375" type="line"/>
      <point x="159" y="375" type="line"/>
      <point x="157" y="361" type="line"/>
      <point x="89" y="361" type="line"/>
      <point x="203" y="6" type="line"/>
      <point x="403" y="361" type="line"/>
      <point x="339" y="361" type="line"/>
      <point x="341" y="375" type="line"/>
      <point x="480" y="375" type="line"/>
      <point x="478" y="361" type="line"/>
      <point x="418" y="361" type="line"/>
      <point x="121" y="-166" type="line"/>
      <point x="191" y="-166" type="line"/>
      <point x="190" y="-180" type="line"/>
      <point x="40" y="-180" type="line"/>
    </contour>
    <contour>
      <point x="326" y="498" type="qcurve"/>
      <point x="326" y="507"/>
      <point x="340" y="520"/>
      <point x="349" y="520" type="qcurve"/>
      <point x="357" y="520"/>
      <point x="367" y="510"/>
      <point x="367" y="502" type="qcurve"/>
      <point x="367" y="493"/>
      <point x="353" y="480"/>
      <point x="344" y="480" type="qcurve"/>
      <point x="336" y="480"/>
      <point x="326" y="490"/>
    </contour>
    <contour>
      <point x="161" y="498" type="qcurve"/>
      <point x="161" y="507"/>
      <point x="175" y="520"/>
      <point x="184" y="520" type="qcurve"/>
      <point x="192" y="520"/>
      <point x="202" y="510"/>
      <point x="202" y="502" type="qcurve"/>
      <point x="202" y="493"/>
      <point x="188" y="480"/>
      <point x="179" y="480" type="qcurve"/>
      <point x="171" y="480"/>
      <point x="161" y="490"/>
    </contour>
  </outline>
</glyph>
<glyph name="Aogonek" format="2">
  <advance width="719"/>
  <unicode hex="0104"/>
  <outline>
    <contour>
      <point x="44" y="14" type="line"/>
      <point x="417" y="732" type="line"/>
      <point x="613" y="14" type="line"/>
      <point x="690" y="14" type="line"/>
      <point x="688" y="0" type="line"/>
      <point x="618" y="0" type="line"/>
      <point x="616" y="-16" type="line"/>
      <point x="613" y="-37"/>
      <point x="582" y="-59"/>
      <point x="546" y="-82"/>
      <point x="517" y="-114"/>
      <point x="517" y="-145" type="qcurve"/>
      <point x="517" y="-173"/>
      <point x="551" y="-209"/>
      <point x="579" y="-209" type="qcurve"/>
      <point x="604" y="-209"/>
      <point x="643" y="-182"/>
      <point x="651" y="-161" type="qcurve"/>
      <point x="666" y="-165" type="line"/>
      <point x="652" y="-194"/>
      <point x="603" y="-223"/>
      <point x="577" y="-223" type="qcurve"/>
      <point x="548" y="-223"/>
      <point x="504" y="-185"/>
      <point x="504" y="-142" type="qcurve"/>
      <point x="504" y="-120"/>
      <point x="529" y="-78"/>
      <point x="555" y="-61" type="qcurve"/>
      <point x="569" y="-53"/>
      <point x="598" y="-32"/>
      <point x="603" y="-6" type="qcurve"/>
      <point x="604" y="0" type="line"/>
      <point x="514" y="0" type="line"/>
      <point x="516" y="14" type="line"/>
      <point x="598" y="14" type="line"/>
      <point x="516" y="318" type="line"/>
      <point x="216" y="318" type="line"/>
      <point x="59" y="14" type="line"/>
      <point x="146" y="14" type="line"/>
      <point x="144" y="0" type="line"/>
      <point x="-30" y="0" type="line"/>
      <point x="-28" y="14" type="line"/>
    </contour>
    <contour>
      <point x="223" y="332" type="line"/>
      <point x="512" y="332" type="line"/>
      <point x="419" y="675" type="line"/>
      <point x="418" y="680"/>
      <point x="417" y="684" type="qcurve"/>
      <point x="416" y="688"/>
      <point x="414" y="697"/>
      <point x="413" y="700" type="qcurve"/>
      <point x="411" y="697"/>
      <point x="407" y="688"/>
      <point x="405" y="684" type="qcurve"/>
      <point x="402" y="680"/>
      <point x="401" y="675" type="qcurve"/>
    </contour>
  </outline>
</glyph>
<glyph name="cdotaccent" format="2">
  <advance width="397"/>
  <unicode hex="010B"/>
  <outline>
    <contour>
      <point x="370" y="340" type="qcurve"/>
      <point x="364" y="288" type="line"/>
      <point x="351" y="288" type="line"/>
      <point x="356" y="331" type="line"/>
      <point x="335" y="349"/>
      <point x="282" y="369"/>
      <point x="251" y="369" type="qcurve"/>
      <point x="210" y="369"/>
      <point x="137" y="337"/>
      <point x="80" y="283"/>
      <point x="47" y="210"/>
      <point x="47" y="170" type="qcurve"/>
      <point x="47" y="136"/>
      <point x="71" y="77"/>
      <point x="113" y="33"/>
      <point x="171" y="8"/>
      <point x="206" y="8" type="qcurve"/>
      <point x="238" y="8"/>
      <point x="298" y="29"/>
      <point x="324" y="47" type="qcurve"/>
      <point x="333" y="37" type="line"/>
      <point x="305" y="17"/>
      <point x="240" y="-6"/>
      <point x="205" y="-6" type="qcurve"/>
      <point x="167" y="-6"/>
      <point x="104" y="21"/>
      <point x="59" y="68"/>
      <point x="33" y="131"/>
      <point x="33" y="168" type="qcurve"/>
      <point x="33" y="212"/>
      <point x="69" y="290"/>
      <point x="129" y="349"/>
      <point x="208" y="383"/>
      <point x="252" y="383" type="qcurve"/>
      <point x="287" y="383"/>
      <point x="347" y="360"/>
    </contour>
    <contour>
      <point x="246" y="498" type="qcurve"/>
      <point x="246" y="507"/>
      <point x="260" y="520"/>
      <point x="269" y="520" type="qcurve"/>
      <point x="277" y="520"/>
      <point x="287" y="510"/>
      <point x="287" y="502" type="qcurve"/>
      <point x="287" y="493"/>
      <point x="273" y="480"/>
      <point x="264" y="480" type="qcurve"/>
      <point x="256" y="480"/>
      <point x="246" y="490"/>
    </contour>
  </outline>
</glyph>
<glyph name="Dcroat" format="2">
  <advance width="736"/>
  <unicode hex="0110"/>
  <outline>
    <contour>
      <point x="84" y="400" type="line"/>
      <point x="160" y="400" type="line"/>
      <point x="195" y="686" type="line"/>
      <point x="119" y="686" type="line"/>
      <point x="121" y="700" type="line"/>
      <point x="340" y="700" type="line"/>
      <point x="436" y="700"/>
      <point x="568" y="644"/>
      <point x="650" y="554"/>
      <point x="686" y="442"/>
      <point x="686" y="387" type="qcurve"/>
      <point x="686" y="300"/>
      <point x="620" y="157"/>
      <point x="509" y="55"/>
      <point x="366" y="0"/>
      <point x="288" y="0" type="qcurve"/>
      <point x="35" y="0" type="line"/>
      <point x="37" y="14" type="line"/>
      <point x="112" y="14" type="line"/>
      <point x="158" y="386" type="line"/>
      <point x="82" y="386" type="line"/>
    </contour>
    <contour>
      <point x="296" y="14" type="line"/>
      <point x="369" y="14"/>
      <point x="505" y="67"/>
      <point x="610" y="164"/>
      <point x="673" y="301"/>
      <point x="673" y="385" type="qcurve"/>
      <point x="673" y="438"/>
      <point x="639" y="545"/>
      <point x="561" y="631"/>
      <point x="437" y="685"/>
      <point x="347" y="685" type="qcurve"/>
      <point x="209" y="685" type="line"/>
      <point x="174" y="400" type="line"/>
      <point x="365" y="400" type="line"/>
      <point x="363" y="386" type="line"/>
      <point x="172" y="386" type="line"/>
      <point x="127" y="14" type="line"/>
    </contour>
  </outline>
</glyph>
<glyph name="Edotaccent" format="2">
  <advance width="623"/>
  <unicode hex="0116"/>
  <outline>
    <contour>
      <point x="582" y="612" type="line"/>
      <point x="591" y="686" type="line"/>
      <point x="204" y="686" type="line"/>
      <point x="164" y="360" type="line"/>
      <point x="526" y="360" type="line"/>
      <point x="524" y="346" type="line"/>
      <point x="162" y="346" type="line"/>
      <point x="122" y="14" type="line"/>
      <point x="522" y="14" type="line"/>
      <point x="532" y="89" type="line"/>
      <point x="546" y="89" type="line"/>
      <point x="536" y="14" type="line"/>
      <point x="537" y="14" type="line"/>
      <point x="535" y="0" type="line"/>
      <point x="30" y="0" type="line"/>
      <point x="32" y="14" type="line"/>
      <point x="107" y="14" type="line"/>
      <point x="190" y="686" type="line"/>
      <point x="114" y="686" type="line"/>
      <point x="116" y="700" type="line"/>
      <point x="593" y="700" type="line"/>
      <point x="593" y="701" type="line"/>
      <point x="607" y="701" type="line"/>
      <point x="607" y="700" type="line"/>
      <point x="605" y="686" type="line"/>
      <point x="596" y="612" type="line"/>
    </contour>
    <contour>
      <point x="370" y="755" type="qcurve"/>
      <point x="370" y="764"/>
      <point x="384" y="777"/>
      <point x="393" y="777" type="qcurve"/>
      <point x="401" y="777"/>
      <point x="411" y="767"/>
      <point x="411" y="759" type="qcurve"/>
      <point x="411" y="750"/>
      <point x="397" y="737"/>
      <point x="388" y="737" type="qcurve"/>
      <point x="380" y="737"/>
      <point x="370" y="747"/>
    </contour>
  </outline>
</glyph>
<glyph name="eogonek" format="2">
  <advance width="435"/>
  <unicode hex="0119"/>
  <outline>
    <contour>
      <point x="345" y="46" type="line"/>
      <point x="317" y="23"/>
      <point x="251" y="-4"/>
      <point x="215" y="-6" type="qcurve"/>
      <point x="214" y="-16" type="line"/>
      <point x="211" y="-37"/>
      <point x="180" y="-59"/>
      <point x="144" y="-82"/>
      <point x="115" y="-114"/>
      <point x="115" y="-145" type="qcurve"/>
      <point x="115" y="-173"/>
      <point x="149" y="-209"/>
      <point x="177" y="-209" type="qcurve"/>
      <point x="202" y="-209"/>
      <point x="241" y="-182"/>
      <point x="249" y="-161" type="qcurve"/>
      <point x="264" y="-165" type="line"/>
      <point x="250" y="-194"/>
      <point x="201" y="-223"/>
      <point x="175" y="-223" type="qcurve"/>
      <point x="146" y="-223"/>
      <point x="102" y="-185"/>
      <point x="102" y="-142" type="qcurve"/>
      <point x="102" y="-120"/>
      <point x="127" y="-78"/>
      <point x="153" y="-61" type="qcurve"/>
      <point x="167" y="-53"/>
      <point x="196" y="-32"/>
      <point x="201" y="-6" type="qcurve"/>
      <point x="164" y="-5"/>
      <point x="103" y="22"/>
      <point x="58" y="69"/>
      <point x="33" y="132"/>
      <point x="33" y="168" type="qcurve"/>
      <point x="33" y="212"/>
      <point x="69" y="290"/>
      <point x="130" y="349"/>
      <point x="209" y="384"/>
      <point x="253" y="384" type="qcurve"/>
      <point x="315" y="384"/>
      <point x="391" y="313"/>
      <point x="406" y="259" type="qcurve"/>
      <point x="367" y="244"/>
      <point x="276" y="209"/>
      <point x="183" y="173"/>
      <point x="92" y="138"/>
      <point x="52" y="122" type="qcurve"/>
      <point x="66" y="71"/>
      <point x="148" y="8"/>
      <point x="206" y="8" type="qcurve"/>
      <point x="242" y="8"/>
      <point x="309" y="33"/>
      <point x="335" y="56" type="qcurve"/>
    </contour>
    <contour>
      <point x="388" y="266" type="qcurve"/>
      <point x="372" y="311"/>
      <point x="305" y="369"/>
      <point x="251" y="369" type="qcurve"/>
      <point x="210" y="369"/>
      <point x="137" y="337"/>
      <point x="80" y="282"/>
      <point x="47" y="208"/>
      <point x="47" y="166" type="qcurve"/>
      <point x="47" y="159"/>
      <point x="47" y="142"/>
      <point x="49" y="135" type="qcurve"/>
      <point x="88" y="150"/>
      <point x="174" y="184"/>
      <point x="262" y="217"/>
      <point x="349" y="251"/>
    </contour>
  </outline>
</glyph>
<glyph name="gcircumflex" format="2">
  <advance width="526"/>
  <unicode hex="011D"/>
  <outline>
    <contour>
      <point x="436" y="375" type="qcurve"/>
      <point x="526" y="375" type="line"/>
      <point x="524" y="361" type="line"/>
      <point x="444" y="361" type="line"/>
      <point x="399" y="-8" type="line"/>
      <point x="395" y="-40"/>
      <point x="370" y="-102"/>
      <point x="320" y="-150"/>
      <point x="242" y="-180"/>
      <point x="184" y="-180" type="qcurve"/>
      <point x="166" y="-180"/>
      <point x="129" y="-175"/>
      <point x="90" y="-158"/>
      <point x="47" y="-128"/>
      <point x="25" y="-103" type="qcurve"/>
      <point x="36" y="-93" type="line"/>
      <point x="58" y="-117"/>
      <point x="99" y="-146"/>
      <point x="136" y="-161"/>
      <point x="170" y="-166"/>
      <point x="185" y="-166" type="qcurve"/>
      <point x="238" y="-166"/>
      <point x="310" y="-140"/>
      <point x="356" y="-94"/>
      <point x="380" y="-31"/>
      <point x="386" y="6" type="qcurve"/>
      <point x="393" y="54" type="line"/>
      <point x="393" y="55"/>
      <point x="396" y="74"/>
      <point x="399" y="96"/>
      <point x="401" y="115"/>
      <point x="401" y="117" type="qcurve"/>
      <point x="387" y="90"/>
      <point x="346" y="45"/>
      <point x="294" y="12"/>
      <point x="235" y="-6"/>
      <point x="204" y="-6" type="qcurve"/>
      <point x="167" y="-6"/>
      <point x="104" y="21"/>
      <point x="59" y="68"/>
      <point x="33" y="131"/>
      <point x="33" y="168" type="qcurve"/>
      <point x="33" y="212"/>
      <point x="69" y="290"/>
      <point x="129" y="349"/>
      <point x="208" y="383"/>
      <point x="252" y="383" type="qcurve"/>
      <point x="314" y="383"/>
      <point x="403" y="314"/>
      <point x="418" y="260" type="qcurve"/>
      <point x="422" y="289"/>
      <point x="431" y="346"/>
    </contour>
    <contour>
      <point x="47" y="170" type="qcurve"/>
      <point x="47" y="136"/>
      <point x="71" y="77"/>
      <point x="113" y="33"/>
      <point x="171" y="8"/>
      <point x="206" y="8" type="qcurve"/>
      <point x="246" y="8"/>
      <point x="320" y="39"/>
      <point x="377" y="93"/>
      <point x="410" y="165"/>
      <point x="410" y="206" type="qcurve"/>
      <point x="410" y="240"/>
      <point x="386" y="300"/>
      <point x="343" y="344"/>
      <point x="284" y="369"/>
      <point x="250" y="369" type="qcurve"/>
      <point x="209" y="369"/>
      <point x="136" y="337"/>
      <point x="80" y="283"/>
      <point x="47" y="210"/>
    </contour>
    <contour>
      <point x="294" y="600" type="line"/>
      <point x="399" y="479" type="line"/>
      <point x="383" y="479" type="line"/>
      <point x="291" y="573" type="line"/>
      <point x="175" y="479" type="line"/>
      <point x="159" y="479" type="line"/>
    </contour>
  </outline>
</glyph>
<glyph name="Gbreve" format="2">
  <advance width="681"/>
  <unicode hex="011E"/>
  <outline>
    <contour>
      <point x="626" y="582" type="line"/>
      <point x="634" y="650" type="line"/>
      <point x="599" y="671"/>
      <point x="515" y="694"/>
      <point x="470" y="694" type="qcurve"/>
      <point x="394" y="694"/>
      <point x="254" y="633"/>
      <point x="146" y="528"/>
      <point x="82" y="388"/>
      <point x="82" y="309" type="qcurve"/>
      <point x="82" y="246"/>
      <point x="123" y="135"/>
      <point x="200" y="53"/>
      <point x="312" y="6"/>
      <point x="383" y="6" type="qcurve"/>
      <point x="430" y="6"/>
      <point x="518" y="29"/>
      <point x="559" y="51" type="qcurve"/>
      <point x="588" y="286" type="line"/>
      <point x="416" y="286" type="line"/>
      <point x="418" y="300" type="line"/>
      <point x="604" y="300" type="line"/>
      <point x="572" y="42" type="line"/>
      <point x="530" y="19"/>
      <point x="435" y="-8"/>
      <point x="384" y="-8" type="qcurve"/>
      <point x="310" y="-8"/>
      <point x="192" y="41"/>
      <point x="111" y="127"/>
      <point x="68" y="243"/>
      <point x="68" y="309" type="qcurve"/>
      <point x="68" y="391"/>
      <point x="135" y="536"/>
      <point x="246" y="645"/>
      <point x="392" y="708"/>
      <point x="472" y="708" type="qcurve"/>
      <point x="523" y="708"/>
      <point x="611" y="682"/>
      <point x="649" y="658" type="qcurve"/>
      <point x="640" y="582" type="line"/>
    </contour>
    <contour>
      <point x="469" y="733" type="qcurve"/>
      <point x="436" y="733"/>
      <point x="380" y="757"/>
      <point x="341" y="799"/>
      <point x="322" y="857"/>
      <point x="325" y="890" type="qcurve"/>
      <point x="340" y="890" type="line"/>
      <point x="337" y="861"/>
      <point x="354" y="810"/>
      <point x="388" y="770"/>
      <point x="438" y="747"/>
      <point x="470" y="747" type="qcurve"/>
      <point x="502" y="747"/>
      <point x="558" y="770"/>
      <point x="601" y="810"/>
      <point x="629" y="861"/>
      <point x="633" y="890" type="qcurve"/>
      <point x="649" y="890" type="line"/>
      <point x="645" y="857"/>
      <point x="612" y="799"/>
      <point x="563" y="757"/>
      <point x="502" y="733"/>
    </contour>
  </outline>
</glyph>
<glyph name="itilde" format="2">
  <advance width="214"/>
  <unicode hex="0129"/>
  <outline>
    <contour>
      <point x="90" y="37" type="line"/>
      <point x="87" y="14" type="line"/>
      <point x="168" y="14" type="line"/>
      <point x="166" y="0" type="line"/>
      <point x="-9" y="0" type="line"/>
      <point x="-7" y="14" type="line"/>
      <point x="72" y="14" type="line"/>
      <point x="115" y="361" type="line"/>
      <point x="35" y="361" type="line"/>
      <point x="37" y="375" type="line"/>
      <point x="131" y="375" type="line"/>
      <point x="89" y="37" type="line"/>
    </contour>
    <contour>
      <point x="130" y="497" type="qcurve"/>
      <point x="116" y="515"/>
      <point x="94" y="527"/>
      <point x="80" y="527" type="qcurve"/>
      <point x="72" y="527"/>
      <point x="50" y="522"/>
      <point x="29" y="510"/>
      <point x="11" y="489"/>
      <point x="7" y="472" type="qcurve"/>
      <point x="-6" y="474" type="line"/>
      <point x="1" y="511"/>
      <point x="56" y="541"/>
      <point x="84" y="541" type="qcurve"/>
      <point x="104" y="541"/>
      <point x="134" y="520"/>
      <point x="148" y="503" type="qcurve"/>
      <point x="162" y="485"/>
      <point x="185" y="473"/>
      <point x="199" y="473" type="qcurve"/>
      <point x="207" y="473"/>
      <point x="229" y="478"/>
      <point x="250" y="490"/>
      <point x="268" y="511"/>
      <point x="272" y="528" type="qcurve"/>
      <point x="284" y="526" type="line"/>
      <point x="277" y="489"/>
      <point x="222" y="459"/>
      <point x="194" y="459" type="qcurve"/>
      <point x="174" y="459"/>
      <point x="144" y="480"/>
    </contour>
  </outline>
</glyph>
<glyph name="imacron" format="2">
  <advance width="214"/>
  <unicode hex="012B"/>
  <outline>
    <contour>
      <point x="90" y="37" type="line"/>
      <point x="87" y="14" type="line"/>
      <point x="168" y="14" type="line"/>
      <point x="166" y="0" type="line"/>
      <point x="-9" y="0" type="line"/>
      <point x="-7" y="14" type="line"/>
      <point x="72" y="14" type="line"/>
      <point x="115" y="361" type="line"/>
      <point x="35" y="361" type="line"/>
      <point x="37" y="375" type="line"/>
      <point x="131" y="375" type="line"/>
      <point x="89" y="37" type="line"/>
    </contour>
    <contour>
      <point x="23" y="492" type="line"/>
      <point x="25" y="506" type="line"/>
      <point x="255" y="506" type="line"/>
      <point x="253" y="492" type="line"/>
    </contour>
  </outline>
</glyph>
<glyph name="Iogonek" format="2">
  <advance width="292"/>
  <unicode hex="012E"/>
  <outline>
    <contour>
      <point x="289" y="700" type="line"/>
      <point x="287" y="686" type="line"/>
      <point x="204" y="686" type="line"/>
      <point x="121" y="14" type="line"/>
      <point x="205" y="14" type="line"/>
      <point x="203" y="0" type="line"/>
      <point x="29" y="0" type="line"/>
      <point x="31" y="14" type="line"/>
      <point x="107" y="14" type="line"/>
      <point x="190" y="686" type="line"/>
      <point x="113" y="686" type="line"/>
      <point x="115" y="700" type="line"/>
    </contour>
    <contour>
      <point x="203" y="0" type="line"/>
      <point x="189" y="0" type="line"/>
      <point x="188" y="-6" type="line"/>
      <point x="183" y="-32"/>
      <point x="154" y="-53"/>
      <point x="140" y="-61" type="qcurve"/>
      <point x="114" y="-78"/>
      <point x="89" y="-120"/>
      <point x="89" y="-142" type="qcurve"/>
      <point x="89" y="-185"/>
      <point x="133" y="-223"/>
      <point x="162" y="-223" type="qcurve"/>
      <point x="188" y="-223"/>
      <point x="237" y="-194"/>
      <point x="251" y="-165" type="qcurve"/>
      <point x="236" y="-161" type="line"/>
      <point x="228" y="-182"/>
      <point x="189" y="-209"/>
      <point x="164" y="-209" type="qcurve"/>
      <point x="136" y="-209"/>
      <point x="102" y="-173"/>
      <point x="102" y="-145" type="qcurve"/>
      <point x="102" y="-114"/>
      <point x="131" y="-82"/>
      <point x="167" y="-59"/>
      <point x="198" y="-37"/>
      <point x="201" y="-16" type="qcurve"/>
    </contour>
  </outline>
</glyph>
<glyph name="iogonek" format="2">
  <advance width="212"/>
  <unicode hex="012F"/>
  <outline>
    <contour>
      <point x="89" y="37" type="line"/>
      <point x="86" y="14" type="line"/>
      <point x="167" y="14" type="line"/>
      <point x="165" y="0" type="line"/>
      <point x="-10" y="0" type="line"/>
      <point x="-8" y="14" type="line"/>
      <point x="71" y="14" type="line"/>
      <point x="114" y="361" type="line"/>
      <point x="34" y="361" type="line"/>
      <point x="36" y="375" type="line"/>
      <point x="130" y="375" type="line"/>
      <point x="88" y="37" type="line"/>
    </contour>
    <contour>
      <point x="84" y="0" type="line"/>
      <point x="70" y="0" type="line"/>
      <point x="69" y="-6" type="line"/>
      <point x="64" y="-32"/>
      <point x="35" y="-53"/>
      <point x="21" y="-61" type="qcurve"/>
      <point x="-5" y="-78"/>
      <point x="-30" y="-120"/>
      <point x="-30" y="-142" type="qcurve"/>
      <point x="-30" y="-185"/>
      <point x="14" y="-223"/>
      <point x="43" y="-223" type="qcurve"/>
      <point x="69" y="-223"/>
      <point x="118" y="-194"/>
      <point x="132" y="-165" type="qcurve"/>
      <point x="117" y="-161" type="line"/>
      <point x="109" y="-182"/>
      <point x="70" y="-209"/>
      <point x="45" y="-209" type="qcurve"/>
      <point x="17" y="-209"/>
      <point x="-17" y="-173"/>
      <point x="-17" y="-145" type="qcurve"/>
      <point x="-17" y="-114"/>
      <point x="12" y="-82"/>
      <point x="48" y="-59"/>
      <point x="79" y="-37"/>
      <point x="82" y="-16" type="qcurve"/>
    </contour>
    <contour>
      <point x="118" y="498" type="qcurve"/>
      <point x="118" y="507"/>
      <point x="132" y="520"/>
      <point x="141" y="520" type="qcurve"/>
      <point x="149" y="520"/>
      <point x="159" y="510"/>
      <point x="159" y="502" type="qcurve"/>
      <point x="159" y="493"/>
      <point x="145" y="480"/>
      <point x="136" y="480" type="qcurve"/>
      <point x="128" y="480"/>
      <point x="118" y="490"/>
    </contour>
  </outline>
</glyph>
<glyph name="jcircumflex" format="2">
  <advance width="175"/>
  <unicode hex="0135"/>
  <outline>
    <contour>
      <point x="-21" y="-180" type="qcurve"/>
      <point x="-32" y="-171" type="line"/>
      <point x="-3" y="-143"/>
      <point x="37" y="-62"/>
      <point x="43" y="-11" type="qcurve"/>
      <point x="88" y="361" type="line"/>
      <point x="8" y="361" type="line"/>
      <point x="10" y="375" type="line"/>
      <point x="104" y="375" type="line"/>
      <point x="57" y="-7" type="line"/>
      <point x="50" y="-64"/>
      <point x="9" y="-151"/>
    </contour>
    <contour>
      <point x="124" y="660" type="line"/>
      <point x="222" y="479" type="line"/>
      <point x="206" y="479" type="line"/>
      <point x="184" y="517"/>
      <point x="143" y="595"/>
      <point x="121" y="633" type="qcurve"/>
      <point x="-2" y="479" type="line"/>
      <point x="-18" y="479" type="line"/>
    </contour>
  </outline>
</glyph>
<glyph name="uni0136" format="2">
  <advance width="662"/>
  <unicode hex="0136"/>
  <outline>
    <contour>
      <point x="206" y="14" type="line"/>
      <point x="204" y="0" type="line"/>
      <point x="30" y="0" type="line"/>
      <point x="32" y="14" type="line"/>
      <point x="108" y="14" type="line"/>
      <point x="191" y="686" type="line"/>
      <point x="114" y="686" type="line"/>
      <point x="116" y="700" type="line"/>
      <point x="290" y="700" type="line"/>
      <point x="288" y="686" type="line"/>
      <point x="205" y="686" type="line"/>
      <point x="165" y="360" type="line"/>
      <point x="161" y="331" type="line"/>
      <point x="180" y="351" type="line"/>
      <point x="278" y="435"/>
      <point x="474" y="601"/>
      <point x="572" y="686" type="qcurve"/>
      <point x="507" y="686" type="line"/>
      <point x="509" y="700" type="line"/>
      <point x="672" y="700" type="line"/>
      <point x="670" y="686" type="line"/>
      <point x="594" y="686" type="line"/>
      <point x="287" y="424" type="line"/>
      <point x="356" y="321"/>
      <point x="491" y="117"/>
      <point x="560" y="14" type="qcurve"/>
      <point x="642" y="14" type="line"/>
      <point x="640" y="0" type="line"/>
      <point x="462" y="0" type="line"/>
      <point x="464" y="14" type="line"/>
      <point x="540" y="14" type="line"/>
      <point x="473" y="114"/>
      <point x="342" y="313"/>
      <point x="275" y="414" type="qcurve"/>
      <point x="159" y="316" type="line"/>
      <point x="149" y="240"/>
      <point x="132" y="89"/>
      <point x="123" y="14" type="qcurve"/>
    </contour>
    <contour>
      <point x="349" y="-21" type="line"/>
      <point x="335" y="-47"/>
      <point x="318" y="-78"/>
      <point x="302" y="-106"/>
      <point x="285" y="-137"/>
      <point x="271" y="-163" type="qcurve"/>
      <point x="257" y="-163" type="line"/>
      <point x="326" y="-21" type="line"/>
    </contour>
  </outline>
</glyph>
<glyph name="uni0137" format="2">
  <advance width="425"/>
  <unicode hex="0137"/>
  <outline>
    <contour>
      <point x="80" y="37" type="line"/>
      <point x="77" y="14" type="line"/>
      <point x="158" y="14" type="line"/>
      <point x="156" y="0" type="line"/>
      <point x="-19" y="0" type="line"/>
      <point x="-17" y="14" type="line"/>
      <point x="62" y="14" type="line"/>
      <point x="151" y="736" type="line"/>
      <point x="71" y="736" type="line"/>
      <point x="73" y="750" type="line"/>
      <point x="167" y="750" type="line"/>
      <point x="97" y="176" type="line"/>
      <point x="328" y="370" type="line"/>
      <point x="270" y="370" type="line"/>
      <point x="272" y="384" type="line"/>
      <point x="400" y="384" type="line"/>
      <point x="398" y="370" type="line"/>
      <point x="348" y="370" type="line"/>
      <point x="306" y="335"/>
      <point x="232" y="270"/>
      <point x="190" y="235" type="qcurve"/>
      <point x="223" y="179"/>
      <point x="291" y="69"/>
      <point x="324" y="14" type="qcurve"/>
      <point x="385" y="14" type="line"/>
      <point x="383" y="0" type="line"/>
      <point x="315" y="0" type="line"/>
      <point x="280" y="57"/>
      <point x="211" y="168"/>
      <point x="177" y="225" type="qcurve"/>
      <point x="94" y="155" type="line"/>
      <point x="79" y="37" type="line"/>
    </contour>
    <contour>
      <point x="216" y="-21" type="line"/>
      <point x="202" y="-47"/>
      <point x="185" y="-78"/>
      <point x="169" y="-106"/>
      <point x="152" y="-137"/>
      <point x="138" y="-163" type="qcurve"/>
      <point x="124" y="-163" type="line"/>
      <point x="193" y="-21" type="line"/>
    </contour>
  </outline>
</glyph>
<glyph name="lcaron" format="2">
  <advance width="207"/>
  <unicode hex="013E"/>
  <outline>
    <contour>
      <point x="60" y="37" type="line"/>
      <point x="57" y="14" type="line"/>
      <point x="138" y="14" type="line"/>
      <point x="136" y="0" type="line"/>
      <point x="-39" y="0" type="line"/>
      <point x="-37" y="14" type="line"/>
      <point x="42" y="14" type="line"/>
      <point x="131" y="736" type="line"/>
      <point x="51" y="736" type="line"/>
      <point x="53" y="750" type="line"/>
      <point x="147" y="750" type="line"/>
      <point x="59" y="37" type="line"/>
    </contour>
    <contour>
      <point x="236" y="572" type="qcurve"/>
      <point x="235" y="577"/>
      <point x="234" y="585"/>
      <point x="232" y="590" type="qcurve"/>
      <point x="256" y="610"/>
      <point x="282" y="669"/>
      <point x="279" y="704" type="qcurve"/>
      <point x="299" y="711" type="line"/>
      <point x="303" y="671"/>
      <point x="269" y="598"/>
    </contour>
  </outline>
</glyph>
<glyph name="Lslash" format="2">
  <advance width="591"/>
  <unicode hex="0141"/>
  <outline>
    <contour>
      <point x="295" y="700" type="line"/>
      <point x="293" y="686" type="line"/>
      <point x="209" y="686" type="line"/>
      <point x="167" y="340" type="line"/>
      <point x="359" y="408" type="line"/>
      <point x="357" y="394" type="line"/>
      <point x="165" y="326" type="line"/>
      <point x="127" y="14" type="line"/>
      <point x="527" y="14" type="line"/>
      <point x="537" y="89" type="line"/>
      <point x="551" y="89" type="line"/>
      <point x="540" y="0" type="line"/>
      <point x="35" y="0" type="line"/>
      <point x="37" y="14" type="line"/>
      <point x="112" y="14" type="line"/>
      <point x="150" y="321" type="line"/>
      <point x="71" y="293" type="line"/>
      <point x="73" y="307" type="line"/>
      <point x="152" y="335" type="line"/>
      <point x="195" y="686" type="line"/>
      <point x="119" y="686" type="line"/>
      <point x="121" y="700" type="line"/>
    </contour>
  </outline>
</glyph>
<glyph name="Nacute" format="2">
  <advance width="836"/>
  <unicode hex="0143"/>
  <outline>
    <contour>
      <point x="204" y="14" type="line"/>
      <point x="202" y="0" type="line"/>
      <point x="28" y="0" type="line"/>
      <point x="30" y="14" type="line"/>
      <point x="106" y="14" type="line"/>
      <point x="189" y="686" type="line"/>
      <point x="112" y="686" type="line"/>
      <point x="114" y="700" type="line"/>
      <point x="216" y="700" type="line"/>
      <point x="277" y="609"/>
      <point x="384" y="442"/>
      <point x="487" y="279"/>
      <point x="591" y="116"/>
      <point x="649" y="28" type="qcurve"/>
      <point x="665" y="2" type="line"/>
      <point x="666" y="10"/>
      <point x="666" y="26"/>
      <point x="666" y="34" type="qcurve"/>
      <point x="746" y="687" type="line"/>
      <point x="661" y="687" type="line"/>
      <point x="663" y="701" type="line"/>
      <point x="837" y="701" type="line"/>
      <point x="835" y="687" type="line"/>
      <point x="760" y="687" type="line"/>
      <point x="672" y="-32" type="line"/>
      <point x="551" y="147"/>
      <point x="326" y="496"/>
      <point x="217" y="670" type="qcurve"/>
      <point x="201" y="696" type="line"/>
      <point x="201" y="664" type="line"/>
      <point x="120" y="14" type="line"/>
    </contour>
    <contour>
      <point x="449" y="750" type="line"/>
      <point x="555" y="883" type="line"/>
      <point x="571" y="883" type="line"/>
      <point x="465" y="750" type="line"/>
    </contour>
  </outline>
</glyph>
<glyph name="oe" format="2">
  <advance width="653"/>
  <unicode hex="0153"/>
  <outline>
    <contour>
      <point x="565" y="46" type="line"/>
      <point x="536" y="22"/>
      <point x="464" y="-6"/>
      <point x="425" y="-6" type="qcurve"/>
      <point x="363" y="-6"/>
      <point x="320" y="28" type="qcurve"/>
      <point x="266" y="-6"/>
      <point x="205" y="-6" type="qcurve"/>
      <point x="167" y="-6"/>
      <point x="104" y="21"/>
      <point x="59" y="68"/>
      <point x="33" y="131"/>
      <point x="33" y="168" type="qcurve"/>
      <point x="33" y="212"/>
      <point x="69" y="290"/>
      <point x="130" y="349"/>
      <point x="209" y="384"/>
      <point x="253" y="384" type="qcurve"/>
      <point x="284" y="384"/>
      <point x="337" y="366"/>
      <point x="358" y="350" type="qcurve"/>
      <point x="384" y="366"/>
      <point x="442" y="384"/>
      <point x="473" y="384" type="qcurve"/>
      <point x="535" y="384"/>
      <point x="611" y="313"/>
      <point x="626" y="259" type="qcurve"/>
      <point x="587" y="244"/>
      <point x="496" y="209"/>
      <point x="403" y="173"/>
      <point x="312" y="138"/>
      <point x="272" y="122" type="qcurve"/>
      <point x="286" y="71"/>
      <point x="368" y="8"/>
      <point x="426" y="8" type="qcurve"/>
      <point x="462" y="8"/>
      <point x="529" y="33"/>
      <point x="555" y="56" type="qcurve"/>
    </contour>
    <contour>
      <point x="251" y="369" type="qcurve"/>
      <point x="210" y="369"/>
      <point x="137" y="337"/>
      <point x="80" y="283"/>
      <point x="47" y="210"/>
      <point x="47" y="170" type="qcurve"/>
      <point x="47" y="136"/>
      <point x="71" y="77"/>
      <point x="113" y="33"/>
      <point x="171" y="8"/>
      <point x="206" y="8" type="qcurve"/>
      <point x="233" y="8"/>
      <point x="285" y="23"/>
      <point x="308" y="37" type="qcurve"/>
      <point x="282" y="60"/>
      <point x="253" y="128"/>
      <point x="253" y="168" type="qcurve"/>
      <point x="253" y="221"/>
      <point x="303" y="311"/>
      <point x="344" y="341" type="qcurve"/>
      <point x="324" y="354"/>
      <point x="277" y="369"/>
    </contour>
    <contour>
      <point x="608" y="266" type="qcurve"/>
      <point x="592" y="311"/>
      <point x="525" y="369"/>
      <point x="471" y="369" type="qcurve"/>
      <point x="430" y="369"/>
      <point x="357" y="337"/>
      <point x="300" y="282"/>
      <point x="267" y="208"/>
      <point x="267" y="166" type="qcurve"/>
      <point x="267" y="159"/>
      <point x="267" y="142"/>
      <point x="269" y="135" type="qcurve"/>
      <point x="308" y="150"/>
      <point x="394" y="184"/>
      <point x="482" y="217"/>
      <point x="569" y="251"/>
    </contour>
  </outline>
</glyph>
<glyph name="racute" format="2">
  <advance width="292"/>
  <unicode hex="0155"/>
  <outline>
    <contour>
      <point x="89" y="37" type="line"/>
      <point x="86" y="14" type="line"/>
      <point x="167" y="14" type="line"/>
      <point x="165" y="0" type="line"/>
      <point x="-10" y="0" type="line"/>
      <point x="-8" y="14" type="line"/>
      <point x="71" y="14" type="line"/>
      <point x="114" y="361" type="line"/>
      <point x="34" y="361" type="line"/>
      <point x="36" y="375" type="line"/>
      <point x="126" y="375" type="line"/>
      <point x="115" y="277" type="line"/>
      <point x="142" y="325"/>
      <point x="237" y="380"/>
      <point x="294" y="382" type="qcurve"/>
      <point x="292" y="368" type="line"/>
      <point x="259" y="367"/>
      <point x="197" y="344"/>
      <point x="148" y="305"/>
      <point x="115" y="251"/>
      <point x="111" y="220" type="qcurve"/>
      <point x="88" y="37" type="line"/>
    </contour>
    <contour>
      <point x="157" y="479" type="line"/>
      <point x="263" y="612" type="line"/>
      <point x="279" y="612" type="line"/>
      <point x="173" y="479" type="line"/>
    </contour>
  </outline>
</glyph>
<glyph name="uni0156" format="2">
  <advance width="604"/>
  <unicode hex="0156"/>
  <outline>
    <contour>
      <point x="206" y="14" type="line"/>
      <point x="204" y="0" type="line"/>
      <point x="30" y="0" type="line"/>
      <point x="32" y="14" type="line"/>
      <point x="108" y="14" type="line"/>
      <point x="191" y="686" type="line"/>
      <point x="114" y="686" type="line"/>
      <point x="116" y="700" type="line"/>
      <point x="333" y="700" type="line"/>
      <point x="360" y="700"/>
      <point x="423" y="683"/>
      <point x="476" y="645"/>
      <point x="512" y="582"/>
      <point x="512" y="537" type="qcurve"/>
      <point x="512" y="505"/>
      <point x="494" y="443"/>
      <point x="456" y="389"/>
      <point x="400" y="346"/>
      <point x="361" y="334" type="qcurve"/>
      <point x="514" y="14" type="line"/>
      <point x="582" y="14" type="line"/>
      <point x="580" y="0" type="line"/>
      <point x="503" y="0" type="line"/>
      <point x="347" y="330" type="line"/>
      <point x="314" y="321"/>
      <point x="272" y="321" type="qcurve"/>
      <point x="160" y="321" type="line"/>
      <point x="122" y="14" type="line"/>
    </contour>
    <contour>
      <point x="162" y="335" type="line"/>
      <point x="277" y="335" type="line"/>
      <point x="340" y="335"/>
      <point x="425" y="379"/>
      <point x="476" y="442"/>
      <point x="498" y="511"/>
      <point x="498" y="537" type="qcurve"/>
      <point x="498" y="570"/>
      <point x="472" y="625"/>
      <point x="425" y="664"/>
      <point x="360" y="686"/>
      <point x="321" y="686" type="qcurve"/>
      <point x="205" y="686" type="line"/>
    </contour>
    <contour>
      <point x="317" y="-21" type="line"/>
      <point x="303" y="-47"/>
      <point x="286" y="-78"/>
      <point x="270" y="-106"/>
      <point x="253" y="-137"/>
      <point x="239" y="-163" type="qcurve"/>
      <point x="225" y="-163" type="line"/>
      <point x="294" y="-21" type="line"/>
    </contour>
  </outline>
</glyph>
<glyph name="Scircumflex" format="2">
  <advance width="544"/>
  <unicode hex="015C"/>
  <outline>
    <contour>
      <point x="34" y="63" type="qcurve"/>
      <point x="44" y="148" type="line"/>
      <point x="58" y="148" type="line"/>
      <point x="49" y="72" type="line"/>
      <point x="63" y="61"/>
      <point x="104" y="38"/>
      <point x="153" y="18"/>
      <point x="208" y="6"/>
      <point x="238" y="6" type="qcurve"/>
      <point x="278" y="6"/>
      <point x="358" y="31"/>
      <point x="422" y="81"/>
      <point x="462" y="156"/>
      <point x="462" y="207" type="qcurve"/>
      <point x="462" y="259"/>
      <point x="412" y="323"/>
      <point x="336" y="365"/>
      <point x="249" y="396"/>
      <point x="173" y="433"/>
      <point x="123" y="485"/>
      <point x="123" y="529" type="qcurve"/>
      <point x="123" y="566"/>
      <point x="156" y="630"/>
      <point x="213" y="677"/>
      <point x="288" y="704"/>
      <point x="330" y="704" type="qcurve"/>
      <point x="348" y="704"/>
      <point x="392" y="699"/>
      <point x="437" y="689"/>
      <point x="480" y="675"/>
      <point x="497" y="667" type="qcurve"/>
      <point x="487" y="582" type="line"/>
      <point x="473" y="582" type="line"/>
      <point x="482" y="659" type="line"/>
      <point x="455" y="670"/>
      <point x="375" y="691"/>
      <point x="334" y="691" type="qcurve"/>
      <point x="290" y="691"/>
      <point x="217" y="665"/>
      <point x="165" y="622"/>
      <point x="137" y="564"/>
      <point x="137" y="533" type="qcurve"/>
      <point x="137" y="492"/>
      <point x="187" y="443"/>
      <point x="263" y="407"/>
      <point x="350" y="376"/>
      <point x="426" y="331"/>
      <point x="476" y="264"/>
      <point x="476" y="210" type="qcurve"/>
      <point x="476" y="160"/>
      <point x="438" y="79"/>
      <point x="373" y="22"/>
      <point x="284" y="-8"/>
      <point x="233" y="-8" type="qcurve"/>
      <point x="192" y="-8"/>
      <point x="126" y="10"/>
      <point x="75" y="34"/>
      <point x="42" y="58"/>
    </contour>
    <contour>
      <point x="363" y="856" type="line"/>
      <point x="468" y="735" type="line"/>
      <point x="452" y="735" type="line"/>
      <point x="360" y="829" type="line"/>
      <point x="244" y="735" type="line"/>
      <point x="228" y="735" type="line"/>
    </contour>
  </outline>
</glyph>
<glyph name="Scedilla" format="2">
  <advance width="545"/>
  <unicode hex="015E"/>
  <outline>
    <contour>
      <point x="34" y="63" type="qcurve"/>
      <point x="44" y="148" type="line"/>
      <point x="58" y="148" type="line"/>
      <point x="49" y="72" type="line"/>
      <point x="63" y="61"/>
      <point x="104" y="38"/>
      <point x="153" y="18"/>
      <point x="208" y="6"/>
      <point x="238" y="6" type="qcurve"/>
      <point x="278" y="6"/>
      <point x="358" y="31"/>
      <point x="422" y="81"/>
      <point x="462" y="156"/>
      <point x="462" y="207" type="qcurve"/>
      <point x="462" y="259"/>
      <point x="412" y="323"/>
      <point x="336" y="365"/>
      <point x="249" y="396"/>
      <point x="173" y="433"/>
      <point x="123" y="485"/>
      <point x="123" y="529" type="qcurve"/>
      <point x="123" y="566"/>
      <point x="156" y="630"/>
      <point x="213" y="677"/>
      <point x="288" y="704"/>
      <point x="330" y="704" type="qcurve"/>
      <point x="348" y="704"/>
      <point x="392" y="699"/>
      <point x="437" y="689"/>
      <point x="480" y="675"/>
      <point x="497" y="667" type="qcurve"/>
      <point x="487" y="582" type="line"/>
      <point x="473" y="582" type="line"/>
      <point x="482" y="659" type="line"/>
      <point x="455" y="670"/>
      <point x="375" y="691"/>
      <point x="334" y="691" type="qcurve"/>
      <point x="290" y="691"/>
      <point x="217" y="665"/>
      <point x="165" y="622"/>
      <point x="137" y="564"/>
      <point x="137" y="533" type="qcurve"/>
      <point x="137" y="492"/>
      <point x="187" y="443"/>
      <point x="263" y="407"/>
      <point x="350" y="376"/>
      <point x="426" y="331"/>
      <point x="476" y="264"/>
      <point x="476" y="210" type="qcurve"/>
      <point x="476" y="160"/>
      <point x="439" y="81"/>
      <point x="375" y="24"/>
      <point x="288" y="-7"/>
      <point x="238" y="-8" type="qcurve"/>
      <point x="236" y="-20"/>
      <point x="243" y="-37"/>
      <point x="253" y="-49"/>
      <point x="267" y="-57"/>
      <point x="273" y="-61" type="qcurve"/>
      <point x="292" y="-75"/>
      <point x="307" y="-109"/>
      <point x="307" y="-122" type="qcurve"/>
      <point x="307" y="-148"/>
      <point x="291" y="-185"/>
      <point x="264" y="-211"/>
      <point x="229" y="-223"/>
      <point x="211" y="-223" type="qcurve"/>
      <point x="185" y="-223"/>
      <point x="143" y="-194"/>
      <point x="137" y="-165" type="qcurve"/>
      <point x="152" y="-161" type="line"/>
      <point x="156" y="-182"/>
      <point x="188" y="-209"/>
      <point x="213" y="-209" type="qcurve"/>
      <point x="246" y="-209"/>
      <point x="292" y="-163"/>
      <point x="292" y="-128" type="qcurve"/>
      <point x="292" y="-104"/>
      <point x="269" y="-77"/>
      <point x="242" y="-56"/>
      <point x="221" y="-35"/>
      <point x="223" y="-16" type="qcurve"/>
      <point x="224" y="-8" type="line"/>
      <point x="185" y="-7"/>
      <point x="121" y="12"/>
      <point x="73" y="35"/>
      <point x="41" y="58"/>
    </contour>
  </outline>
</glyph>
<glyph name="uni0163" format="2">
  <advance width="240"/>
  <unicode hex="0163"/>
  <outline>
    <contour>
      <point x="131" y="539" type="line"/>
      <point x="145" y="539" type="line"/>
      <point x="124" y="367" type="line"/>
      <point x="251" y="367" type="line"/>
      <point x="249" y="353" type="line"/>
      <point x="122" y="353" type="line"/>
      <point x="80" y="14" type="line"/>
      <point x="171" y="14" type="line"/>
      <point x="170" y="0" type="line"/>
      <point x="65" y="0" type="line"/>
      <point x="69" y="37" type="line"/>
      <point x="108" y="353" type="line"/>
      <point x="19" y="353" type="line"/>
      <point x="21" y="367" type="line"/>
      <point x="110" y="367" type="line"/>
    </contour>
    <contour>
      <point x="85" y="-21" type="line"/>
      <point x="71" y="-47"/>
      <point x="54" y="-78"/>
      <point x="38" y="-106"/>
      <point x="21" y="-137"/>
      <point x="7" y="-163" type="qcurve"/>
      <point x="-7" y="-163" type="line"/>
      <point x="62" y="-21" type="line"/>
    </contour>
  </outline>
</glyph>
<glyph name="tcaron" format="2">
  <advance width="240"/>
  <unicode hex="0165"/>
  <outline>
    <contour>
      <point x="111" y="539" type="line"/>
      <point x="125" y="539" type="line"/>
      <point x="104" y="367" type="line"/>
      <point x="231" y="367" type="line"/>
      <point x="229" y="353" type="line"/>
      <point x="102" y="353" type="line"/>
      <point x="60" y="14" type="line"/>
      <point x="151" y="14" type="line"/>
      <point x="150" y="0" type="line"/>
      <point x="45" y="0" type="line"/>
      <point x="49" y="37" type="line"/>
      <point x="88" y="353" type="line"/>
      <point x="-1" y="353" type="line"/>
      <point x="1" y="367" type="line"/>
      <point x="90" y="367" type="line"/>
    </contour>
    <contour>
      <point x="254" y="572" type="qcurve"/>
      <point x="253" y="577"/>
      <point x="252" y="585"/>
      <point x="250" y="590" type="qcurve"/>
      <point x="274" y="610"/>
      <point x="300" y="669"/>
      <point x="297" y="704" type="qcurve"/>
      <point x="317" y="711" type="line"/>
      <point x="321" y="671"/>
      <point x="287" y="598"/>
    </contour>
  </outline>
</glyph>
<glyph name="tbar" format="2">
  <advance width="240"/>
  <unicode hex="0167"/>
  <outline>
    <contour>
      <point x="30" y="424" type="line"/>
      <point x="32" y="438" type="line"/>
      <point x="118" y="438" type="line"/>
      <point x="131" y="539" type="line"/>
      <point x="145" y="539" type="line"/>
      <point x="132" y="438" type="line"/>
      <point x="262" y="438" type="line"/>
      <point x="260" y="424" type="line"/>
      <point x="131" y="424" type="line"/>
      <point x="124" y="367" type="line"/>
      <point x="251" y="367" type="line"/>
      <point x="249" y="353" type="line"/>
      <point x="122" y="353" type="line"/>
      <point x="80" y="14" type="line"/>
      <point x="171" y="14" type="line"/>
      <point x="170" y="0" type="line"/>
      <point x="65" y="0" type="line"/>
      <point x="69" y="37" type="line"/>
      <point x="108" y="353" type="line"/>
      <point x="19" y="353" type="line"/>
      <point x="21" y="367" type="line"/>
      <point x="110" y="367" type="line"/>
      <point x="117" y="424" type="line"/>
    </contour>
  </outline>
</glyph>
<glyph name="uogonek" format="2">
  <advance width="478"/>
  <unicode hex="0173"/>
  <outline>
    <contour>
      <point x="377" y="338" type="line"/>
      <point x="380" y="361" type="line"/>
      <point x="299" y="361" type="line"/>
      <point x="301" y="375" type="line"/>
      <point x="396" y="375" type="line"/>
      <point x="351" y="14" type="line"/>
      <point x="431" y="14" type="line"/>
      <point x="430" y="0" type="line"/>
      <point x="340" y="0" type="line"/>
      <point x="351" y="98" type="line"/>
      <point x="325" y="50"/>
      <point x="229" y="-7"/>
      <point x="173" y="-7" type="qcurve"/>
      <point x="120" y="-7"/>
      <point x="66" y="55"/>
      <point x="71" y="105" type="qcurve"/>
      <point x="100" y="342" type="line"/>
      <point x="102" y="361" type="line"/>
      <point x="22" y="361" type="line"/>
      <point x="24" y="375" type="line"/>
      <point x="118" y="375" type="line"/>
      <point x="113" y="333" type="line"/>
      <point x="84" y="98" type="line"/>
      <point x="81" y="62"/>
      <point x="124" y="9"/>
      <point x="168" y="7" type="qcurve"/>
      <point x="202" y="7"/>
      <point x="266" y="29"/>
      <point x="317" y="68"/>
      <point x="351" y="123"/>
      <point x="355" y="155" type="qcurve"/>
    </contour>
    <contour>
      <point x="355" y="0" type="line"/>
      <point x="341" y="0" type="line"/>
      <point x="340" y="-6" type="line"/>
      <point x="335" y="-32"/>
      <point x="306" y="-53"/>
      <point x="292" y="-61" type="qcurve"/>
      <point x="266" y="-78"/>
      <point x="241" y="-120"/>
      <point x="241" y="-142" type="qcurve"/>
      <point x="241" y="-185"/>
      <point x="285" y="-223"/>
      <point x="314" y="-223" type="qcurve"/>
      <point x="340" y="-223"/>
      <point x="389" y="-194"/>
      <point x="403" y="-165" type="qcurve"/>
      <point x="388" y="-161" type="line"/>
      <point x="380" y="-182"/>
      <point x="341" y="-209"/>
      <point x="316" y="-209" type="qcurve"/>
      <point x="288" y="-209"/>
      <point x="254" y="-173"/>
      <point x="254" y="-145" type="qcurve"/>
      <point x="254" y="-114"/>
      <point x="283" y="-82"/>
      <point x="319" y="-59"/>
      <point x="350" y="-37"/>
      <point x="353" y="-16" type="qcurve"/>
    </contour>
  </outline>
</glyph>
<glyph name="Ydieresis" format="2">
  <advance width="662"/>
  <unicode hex="0178"/>
  <outline>
    <contour>
      <point x="387" y="14" type="line"/>
      <point x="386" y="0" type="line"/>
      <point x="212" y="0" type="line"/>
      <point x="213" y="14" type="line"/>
      <point x="293" y="14" type="line"/>
      <point x="324" y="262" type="line"/>
      <point x="121" y="686" type="line"/>
      <point x="56" y="686" type="line"/>
      <point x="58" y="700" type="line"/>
      <point x="232" y="700" type="line"/>
      <point x="230" y="686" type="line"/>
      <point x="138" y="686" type="line"/>
      <point x="184" y="589"/>
      <point x="278" y="396"/>
      <point x="323" y="298" type="qcurve"/>
      <point x="333" y="272" type="line"/>
      <point x="347" y="298" type="line"/>
      <point x="626" y="686" type="line"/>
      <point x="535" y="686" type="line"/>
      <point x="537" y="700" type="line"/>
      <point x="717" y="700" type="line"/>
      <point x="715" y="686" type="line"/>
      <point x="644" y="686" type="line"/>
      <point x="338" y="262" type="line"/>
      <point x="307" y="14" type="line"/>
    </contour>
    <contour>
      <point x="458" y="788" type="qcurve"/>
      <point x="458" y="797"/>
      <point x="472" y="810"/>
      <point x="481" y="810" type="qcurve"/>
      <point x="489" y="810"/>
      <point x="499" y="800"/>
      <point x="499" y="792" type="qcurve"/>
      <point x="499" y="783"/>
      <point x="485" y="770"/>
      <point x="476" y="770" type="qcurve"/>
      <point x="468" y="770"/>
      <point x="458" y="780"/>
    </contour>
    <contour>
      <point x="293" y="788" type="qcurve"/>
      <point x="293" y="797"/>
      <point x="307" y="810"/>
      <point x="316" y="810" type="qcurve"/>
      <point x="324" y="810"/>
      <point x="334" y="800"/>
      <point x="334" y="792" type="qcurve"/>
      <point x="334" y="783"/>
      <point x="320" y="770"/>
      <point x="311" y="770" type="qcurve"/>
      <point x="303" y="770"/>
      <point x="293" y="780"/>
    </contour>
  </outline>
</glyph>
<glyph name="Zacute" format="2">
  <advance width="644"/>
  <unicode hex="0179"/>
  <outline>
    <contour>
      <point x="143" y="700" type="qcurve"/>
      <point x="618" y="700" type="line"/>
      <point x="16" y="14" type="line"/>
      <point x="552" y="14" type="line"/>
      <point x="569" y="148" type="line"/>
      <point x="583" y="148" type="line"/>
      <point x="566" y="14" type="line"/>
      <point x="567" y="14" type="line"/>
      <point x="565" y="0" type="line"/>
      <point x="-11" y="0" type="line"/>
      <point x="139" y="180"/>
      <point x="439" y="517"/>
      <point x="588" y="686" type="qcurve"/>
      <point x="155" y="686" type="line"/>
      <point x="124" y="686"/>
      <point x="99" y="702"/>
      <point x="101" y="731" type="qcurve"/>
      <point x="101" y="735" type="line"/>
      <point x="117" y="735" type="line"/>
      <point x="116" y="723" type="line"/>
      <point x="115" y="714"/>
      <point x="126" y="700"/>
    </contour>
    <contour>
      <point x="371" y="736" type="line"/>
      <point x="477" y="869" type="line"/>
      <point x="493" y="869" type="line"/>
      <point x="387" y="736" type="line"/>
    </contour>
  </outline>
</glyph>
<glyph name="Zdotaccent" format="2">
  <advance width="644"/>
  <unicode hex="017B"/>
  <outline>
    <contour>
      <point x="143" y="700" type="qcurve"/>
      <point x="618" y="700" type="line"/>
      <point x="16" y="14" type="line"/>
      <point x="552" y="14" type="line"/>
      <point x="569" y="148" type="line"/>
      <point x="583" y="148" type="line"/>
      <point x="566" y="14" type="line"/>
      <point x="567" y="14" type="line"/>
      <point x="565" y="0" type="line"/>
      <point x="-11" y="0" type="line"/>
      <point x="139" y="180"/>
      <point x="439" y="517"/>
      <point x="588" y="686" type="qcurve"/>
      <point x="155" y="686" type="line"/>
      <point x="124" y="686"/>
      <point x="99" y="702"/>
      <point x="101" y="731" type="qcurve"/>
      <point x="101" y="735" type="line"/>
      <point x="117" y="735" type="line"/>
      <point x="116" y="723" type="line"/>
      <point x="115" y="714"/>
      <point x="126" y="700"/>
    </contour>
    <contour>
      <point x="357" y="755" type="qcurve"/>
      <point x="357" y="764"/>
      <point x="371" y="777"/>
      <point x="380" y="777" type="qcurve"/>
      <point x="388" y="777"/>
      <point x="398" y="767"/>
      <point x="398" y="759" type="qcurve"/>
      <point x="398" y="750"/>
      <point x="384" y="737"/>
      <point x="375" y="737" type="qcurve"/>
      <point x="367" y="737"/>
      <point x="357" y="747"/>
    </contour>
  </outline>
</glyph>
<glyph name="zcaron" format="2">
  <advance width="367"/>
  <unicode hex="017E"/>
  <outline>
    <contour>
      <point x="306" y="87" type="line"/>
      <point x="297" y="14" type="line"/>
      <point x="295" y="0" type="line"/>
      <point x="-4" y="0" type="line"/>
      <point x="300" y="361" type="line"/>
      <point x="103" y="361" type="line"/>
      <point x="72" y="361"/>
      <point x="47" y="377"/>
      <point x="49" y="406" type="qcurve"/>
      <point x="49" y="410" type="line"/>
      <point x="62" y="410" type="line"/>
      <point x="61" y="398" type="line"/>
      <point x="60" y="389"/>
      <point x="74" y="375"/>
      <point x="91" y="375" type="qcurve"/>
      <point x="326" y="375" type="line"/>
      <point x="22" y="14" type="line"/>
      <point x="284" y="14" type="line"/>
      <point x="293" y="87" type="line"/>
    </contour>
    <contour>
      <point x="106" y="600" type="line"/>
      <point x="122" y="600" type="line"/>
      <point x="214" y="506" type="line"/>
      <point x="330" y="600" type="line"/>
      <point x="346" y="600" type="line"/>
      <point x="211" y="479" type="line"/>
    </contour>
  </outline>
</glyph>
<glyph name="florin" format="2">
  <advance width="283"/>
  <unicode hex="0192"/>
  <outline>
    <contour>
      <point x="128" y="358" type="line"/>
      <point x="91" y="59" type="line"/>
      <point x="84" y="3"/>
      <point x="44" y="-82"/>
      <point x="-13" y="-140"/>
      <point x="-84" y="-172"/>
      <point x="-122" y="-173" type="qcurve"/>
      <point x="-120" y="-159" type="line"/>
      <point x="-86" y="-159"/>
      <point x="-20" y="-129"/>
      <point x="34" y="-73"/>
      <point x="71" y="6"/>
      <point x="77" y="55" type="qcurve"/>
      <point x="114" y="358" type="line"/>
      <point x="49" y="358" type="line"/>
      <point x="51" y="372" type="line"/>
      <point x="116" y="372" type="line"/>
      <point x="134" y="518" type="line"/>
      <point x="141" y="573"/>
      <point x="181" y="659"/>
      <point x="238" y="717"/>
      <point x="309" y="748"/>
      <point x="347" y="750" type="qcurve"/>
      <point x="346" y="736" type="line"/>
      <point x="312" y="736"/>
      <point x="246" y="706"/>
      <point x="192" y="650"/>
      <point x="154" y="571"/>
      <point x="148" y="522" type="qcurve"/>
      <point x="130" y="372" type="line"/>
      <point x="260" y="372" type="line"/>
      <point x="258" y="358" type="line"/>
    </contour>
  </outline>
</glyph>
<glyph name="dotaccent" format="2">
  <advance width="185"/>
  <unicode hex="02D9"/>
  <outline>
    <contour>
      <point x="128" y="498" type="qcurve"/>
      <point x="128" y="507"/>
      <point x="142" y="520"/>
      <point x="151" y="520" type="qcurve"/>
      <point x="159" y="520"/>
      <point x="169" y="510"/>
      <point x="169" y="502" type="qcurve"/>
      <point x="169" y="493"/>
      <point x="155" y="480"/>
      <point x="146" y="480" type="qcurve"/>
      <point x="138" y="480"/>
      <point x="128" y="490"/>
    </contour>
  </outline>
</glyph>
<glyph name="ogonek" format="2">
  <advance width="833"/>
  <unicode hex="02DB"/>
  <outline>
    <contour>
      <point x="220" y="-16" type="line"/>
      <point x="217" y="-37"/>
      <point x="186" y="-59"/>
      <point x="150" y="-82"/>
      <point x="121" y="-114"/>
      <point x="121" y="-145" type="qcurve"/>
      <point x="121" y="-173"/>
      <point x="155" y="-209"/>
      <point x="183" y="-209" type="qcurve"/>
      <point x="208" y="-209"/>
      <point x="247" y="-182"/>
      <point x="255" y="-161" type="qcurve"/>
      <point x="270" y="-165" type="line"/>
      <point x="256" y="-194"/>
      <point x="207" y="-223"/>
      <point x="181" y="-223" type="qcurve"/>
      <point x="152" y="-223"/>
      <point x="108" y="-185"/>
      <point x="108" y="-142" type="qcurve"/>
      <point x="108" y="-120"/>
      <point x="133" y="-78"/>
      <point x="159" y="-61" type="qcurve"/>
      <point x="173" y="-53"/>
      <point x="202" y="-32"/>
      <point x="207" y="-6" type="qcurve"/>
      <point x="208" y="0" type="line"/>
      <point x="222" y="0" type="line"/>
    </contour>
  </outline>
</glyph>
<glyph name="Etilde" format="2">
  <advance width="623"/>
  <unicode hex="1EBC"/>
  <outline>
    <contour>
      <point x="582" y="612" type="line"/>
      <point x="591" y="686" type="line"/>
      <point x="204" y="686" type="line"/>
      <point x="164" y="360" type="line"/>
      <point x="526" y="360" type="line"/>
      <point x="524" y="346" type="line"/>
      <point x="162" y="346" type="line"/>
      <point x="122" y="14" type="line"/>
      <point x="522" y="14" type="line"/>
      <point x="532" y="89" type="line"/>
      <point x="546" y="89" type="line"/>
      <point x="536" y="14" type="line"/>
      <point x="537" y="14" type="line"/>
      <point x="535" y="0" type="line"/>
      <point x="30" y="0" type="line"/>
      <point x="32" y="14" type="line"/>
      <point x="107" y="14" type="line"/>
      <point x="190" y="686" type="line"/>
      <point x="114" y="686" type="line"/>
      <point x="116" y="700" type="line"/>
      <point x="593" y="700" type="line"/>
      <point x="593" y="701" type="line"/>
      <point x="607" y="701" type="line"/>
      <point x="607" y="700" type="line"/>
      <point x="605" y="686" type="line"/>
      <point x="596" y="612" type="line"/>
    </contour>
    <contour>
      <point x="410" y="776" type="qcurve"/>
      <point x="396" y="794"/>
      <point x="374" y="806"/>
      <point x="360" y="806" type="qcurve"/>
      <point x="352" y="806"/>
      <point x="330" y="801"/>
      <point x="309" y="789"/>
      <point x="291" y="768"/>
      <point x="287" y="751" type="qcurve"/>
      <point x="274" y="753" type="line"/>
      <point x="281" y="790"/>
      <point x="336" y="820"/>
      <point x="364" y="820" type="qcurve"/>
      <point x="384" y="820"/>
      <point x="414" y="799"/>
      <point x="428" y="782" type="qcurve"/>
      <point x="442" y="764"/>
      <point x="465" y="752"/>
      <point x="479" y="752" type="qcurve"/>
      <point x="487" y="752"/>
      <point x="509" y="757"/>
      <point x="530" y="769"/>
      <point x="548" y="790"/>
      <point x="552" y="807" type="qcurve"/>
      <point x="564" y="805" type="line"/>
      <point x="557" y="768"/>
      <point x="502" y="738"/>
      <point x="474" y="738" type="qcurve"/>
      <point x="454" y="738"/>
      <point x="424" y="759"/>
    </contour>
  </outline>
</glyph>
<glyph name="quotedblleft" format="2">
  <advance width="287"/>
  <unicode hex="201C"/>
  <outline>
    <contour>
      <point x="260" y="590" type="qcurve"/>
      <point x="258" y="585"/>
      <point x="254" y="577"/>
      <point x="252" y="572" type="qcurve"/>
      <point x="226" y="598"/>
      <point x="210" y="671"/>
      <point x="223" y="711" type="qcurve"/>
      <point x="241" y="704" type="line"/>
      <point x="230" y="669"/>
      <point x="242" y="610"/>
    </contour>
    <contour>
      <point x="156" y="590" type="qcurve"/>
      <point x="154" y="585"/>
      <point x="150" y="577"/>
      <point x="148" y="572" type="qcurve"/>
      <point x="122" y="598"/>
      <point x="106" y="671"/>
      <point x="119" y="711" type="qcurve"/>
      <point x="137" y="704" type="line"/>
      <point x="126" y="669"/>
      <point x="138" y="610"/>
    </contour>
  </outline>
</glyph>
<glyph name="quotedblright" format="2">
  <advance width="290"/>
  <unicode hex="201D"/>
  <outline>
    <contour>
      <point x="109" y="572" type="qcurve"/>
      <point x="108" y="577"/>
      <point x="107" y="585"/>
      <point x="105" y="590" type="qcurve"/>
      <point x="129" y="610"/>
      <point x="155" y="669"/>
      <point x="152" y="704" type="qcurve"/>
      <point x="172" y="711" type="line"/>
      <point x="176" y="671"/>
      <point x="142" y="598"/>
    </contour>
    <contour>
      <point x="213" y="572" type="qcurve"/>
      <point x="212" y="577"/>
      <point x="211" y="585"/>
      <point x="209" y="590" type="qcurve"/>
      <point x="233" y="610"/>
      <point x="259" y="669"/>
      <point x="256" y="704" type="qcurve"/>
      <point x="276" y="711" type="line"/>
      <point x="280" y="671"/>
      <point x="246" y="598"/>
    </contour>
  </outline>
</glyph>
<glyph name="quotedblbase" format="2">
  <advance width="316"/>
  <unicode hex="201E"/>
  <outline>
    <contour>
      <point x="37" y="-47" type="qcurve"/>
      <point x="33" y="-29" type="line"/>
      <point x="56" y="-9"/>
      <point x="82" y="50"/>
      <point x="80" y="85" type="qcurve"/>
      <point x="100" y="92" type="line"/>
      <point x="103" y="52"/>
      <point x="69" y="-21"/>
    </contour>
    <contour>
      <point x="141" y="-47" type="qcurve"/>
      <point x="137" y="-29" type="line"/>
      <point x="160" y="-9"/>
      <point x="186" y="50"/>
      <point x="184" y="85" type="qcurve"/>
      <point x="204" y="92" type="line"/>
      <point x="207" y="52"/>
      <point x="173" y="-21"/>
    </contour>
  </outline>
</glyph>
<glyph name="daggerdbl" format="2">
  <advance width="414"/>
  <unicode hex="2021"/>
  <outline>
    <contour>
      <point x="176" y="73" type="line"/>
      <point x="201" y="280" type="line"/>
      <point x="58" y="280" type="line"/>
      <point x="60" y="294" type="line"/>
      <point x="203" y="294" type="line"/>
      <point x="219" y="424" type="line"/>
      <point x="134" y="424" type="line"/>
      <point x="135" y="438" type="line"/>
      <point x="220" y="438" type="line"/>
      <point x="237" y="571" type="line"/>
      <point x="251" y="571" type="line"/>
      <point x="234" y="438" type="line"/>
      <point x="319" y="438" type="line"/>
      <point x="318" y="424" type="line"/>
      <point x="233" y="424" type="line"/>
      <point x="217" y="294" type="line"/>
      <point x="361" y="294" type="line"/>
      <point x="359" y="280" type="line"/>
      <point x="215" y="280" type="line"/>
      <point x="190" y="73" type="line"/>
    </contour>
  </outline>
</glyph>
<glyph name="Omega" format="2">
  <advance width="689"/>
  <unicode hex="2126"/>
  <outline>
    <contour>
      <point x="46" y="14" type="line"/>
      <point x="227" y="14" type="line"/>
      <point x="159" y="48"/>
      <point x="75" y="162"/>
      <point x="75" y="251" type="qcurve"/>
      <point x="75" y="301"/>
      <point x="110" y="419"/>
      <point x="185" y="521"/>
      <point x="304" y="588"/>
      <point x="387" y="588" type="qcurve"/>
      <point x="453" y="588"/>
      <point x="541" y="538"/>
      <point x="595" y="461"/>
      <point x="618" y="367"/>
      <point x="618" y="322" type="qcurve"/>
      <point x="618" y="261"/>
      <point x="588" y="164"/>
      <point x="532" y="89"/>
      <point x="454" y="34"/>
      <point x="406" y="14" type="qcurve"/>
      <point x="575" y="14" type="line"/>
      <point x="573" y="0" type="line"/>
      <point x="369" y="0" type="line"/>
      <point x="371" y="14" type="line"/>
      <point x="410" y="28"/>
      <point x="486" y="72"/>
      <point x="549" y="137"/>
      <point x="593" y="225"/>
      <point x="601" y="283" type="qcurve"/>
      <point x="610" y="356"/>
      <point x="585" y="466"/>
      <point x="526" y="538"/>
      <point x="438" y="574"/>
      <point x="384" y="574" type="qcurve"/>
      <point x="330" y="574"/>
      <point x="233" y="540"/>
      <point x="155" y="469"/>
      <point x="102" y="361"/>
      <point x="93" y="288" type="qcurve"/>
      <point x="85" y="229"/>
      <point x="110" y="140"/>
      <point x="159" y="74"/>
      <point x="226" y="29"/>
      <point x="261" y="14" type="qcurve"/>
      <point x="259" y="0" type="line"/>
      <point x="44" y="0" type="line"/>
    </contour>
  </outline>
</glyph>
<glyph name="summation" format="2">
  <advance width="448"/>
  <unicode hex="2211"/>
  <outline>
    <contour>
      <point x="57" y="-42" type="line"/>
      <point x="351" y="-42" type="line"/>
      <point x="363" y="-56" type="line"/>
      <point x="36" y="-56" type="line"/>
      <point x="199" y="347" type="line"/>
      <point x="135" y="750" type="line"/>
      <point x="462" y="750" type="line"/>
      <point x="446" y="736" type="line"/>
      <point x="152" y="736" type="line"/>
      <point x="213" y="347" type="line"/>
    </contour>
  </outline>
</glyph>
<glyph name="approxequal" format="2">
  <advance width="446"/>
  <unicode hex="2248"/>
  <outline>
    <contour>
      <point x="207" y="207" type="qcurve"/>
      <point x="193" y="225"/>
      <point x="171" y="237"/>
      <point x="157" y="237" type="qcurve"/>
      <point x="149" y="237"/>
      <point x="127" y="232"/>
      <point x="106" y="220"/>
      <point x="88" y="199"/>
      <point x="84" y="182" type="qcurve"/>
      <point x="71" y="184" type="line"/>
      <point x="78" y="221"/>
      <point x="133" y="251"/>
      <point x="161" y="251" type="qcurve"/>
      <point x="181" y="251"/>
      <point x="211" y="230"/>
      <point x="225" y="213" type="qcurve"/>
      <point x="239" y="195"/>
      <point x="262" y="183"/>
      <point x="276" y="183" type="qcurve"/>
      <point x="284" y="183"/>
      <point x="306" y="188"/>
      <point x="327" y="200"/>
      <point x="345" y="221"/>
      <point x="349" y="238" type="qcurve"/>
      <point x="361" y="236" type="line"/>
      <point x="354" y="199"/>
      <point x="299" y="169"/>
      <point x="271" y="169" type="qcurve"/>
      <point x="251" y="169"/>
      <point x="221" y="190"/>
    </contour>
    <contour>
      <point x="226" y="357" type="qcurve"/>
      <point x="212" y="375"/>
      <point x="190" y="387"/>
      <point x="176" y="387" type="qcurve"/>
      <point x="168" y="387"/>
      <point x="146" y="382"/>
      <point x="125" y="370"/>
      <point x="107" y="349"/>
      <point x="103" y="332" type="qcurve"/>
      <point x="90" y="334" type="line"/>
      <point x="97" y="371"/>
      <point x="152" y="401"/>
      <point x="180" y="401" type="qcurve"/>
      <point x="200" y="401"/>
      <point x="230" y="380"/>
      <point x="244" y="363" type="qcurve"/>
      <point x="258" y="345"/>
      <point x="281" y="333"/>
      <point x="295" y="333" type="qcurve"/>
      <point x="303" y="333"/>
      <point x="325" y="338"/>
      <point x="346" y="350"/>
      <point x="364" y="371"/>
      <point x="368" y="388" type="qcurve"/>
      <point x="380" y="386" type="line"/>
      <point x="373" y="349"/>
      <point x="318" y="319"/>
      <point x="290" y="319" type="qcurve"/>
      <point x="270" y="319"/>
      <point x="240" y="340"/>
    </contour>
  </outline>
</glyph>
<glyph name="lessequal" format="2">
  <advance width="587"/>
  <unicode hex="2264"/>
  <outline>
    <contour>
      <point x="502" y="236" type="line"/>
      <point x="500" y="220" type="line"/>
      <point x="93" y="473" type="line"/>
      <point x="211" y="536"/>
      <point x="444" y="663"/>
      <point x="562" y="726" type="qcurve"/>
      <point x="560" y="710" type="line"/>
      <point x="119" y="473" type="line"/>
    </contour>
    <contour>
      <point x="446" y="96" type="line"/>
      <point x="86" y="96" type="line"/>
      <point x="88" y="110" type="line"/>
      <point x="448" y="110" type="line"/>
    </contour>
  </outline>
</glyph>
<glyph name="fl" format="2">
  <advance width="515"/>
  <unicode hex="FB02"/>
  <outline>
    <contour>
      <point x="86" y="37" type="line"/>
      <point x="83" y="14" type="line"/>
      <point x="184" y="14" type="line"/>
      <point x="182" y="0" type="line"/>
      <point x="-13" y="0" type="line"/>
      <point x="-11" y="14" type="line"/>
      <point x="68" y="14" type="line"/>
      <point x="111" y="361" type="line"/>
      <point x="46" y="361" type="line"/>
      <point x="48" y="375" type="line"/>
      <point x="113" y="375" type="line"/>
      <point x="131" y="518" type="line"/>
      <point x="138" y="573"/>
      <point x="178" y="659"/>
      <point x="235" y="717"/>
      <point x="306" y="748"/>
      <point x="344" y="750" type="qcurve"/>
      <point x="478" y="750" type="line"/>
      <point x="390" y="37" type="line"/>
      <point x="391" y="37" type="line"/>
      <point x="388" y="14" type="line"/>
      <point x="469" y="14" type="line"/>
      <point x="467" y="0" type="line"/>
      <point x="292" y="0" type="line"/>
      <point x="294" y="14" type="line"/>
      <point x="373" y="14" type="line"/>
      <point x="462" y="736" type="line"/>
      <point x="342" y="736" type="line"/>
      <point x="308" y="736"/>
      <point x="242" y="706"/>
      <point x="188" y="650"/>
      <point x="151" y="571"/>
      <point x="145" y="522" type="qcurve"/>
      <point x="127" y="375" type="line"/>
      <point x="257" y="375" type="line"/>
      <point x="255" y="361" type="line"/>
      <point x="125" y="361" type="line"/>
      <point x="85" y="37" type="line"/>
    </contour>
  </outline>
</glyph>
